<svg width="230" height="82" viewBox="0 0 230 82" fill="none" xmlns="http://www.w3.org/2000/svg">
<path d="M16.8126 3.22418L12.2738 24.1551L2.11888 27.5224C0.297797 28.1231 -0.432026 33.2293 0.888606 36.154L8.23549 52.4371L6.49781 75.4389C6.18503 79.5967 8.11037 82.711 9.72293 80.7665L18.8075 69.9058L27.892 80.7665C29.5046 82.6952 31.4299 79.5967 31.1172 75.4389L29.3795 52.4371L36.7264 36.154C38.047 33.2293 37.3172 28.1231 35.4961 27.5224L25.3411 24.1551L20.8023 3.22418C19.9891 -0.506705 17.6328 -0.554131 16.8126 3.22418Z" fill="#FFF85A"/>
<path d="M164.359 3.22418L159.82 24.1551L149.665 27.5224C147.844 28.1231 147.114 33.2293 148.435 36.154L155.781 52.4371L154.044 75.4389C153.731 79.5967 155.656 82.711 157.269 80.7665L166.353 69.9058L175.438 80.7665C177.051 82.6952 178.976 79.5967 178.663 75.4389L176.925 52.4371L184.272 36.154C185.593 33.2293 184.863 28.1231 183.042 27.5224L172.887 24.1551L168.348 3.22418C167.535 -0.506705 165.179 -0.554131 164.359 3.22418Z" fill="#FFF85A"/>
<path d="M65.9948 3.22418L61.456 24.1551L51.301 27.5224C49.4799 28.1231 48.7501 33.2293 50.0707 36.154L57.4176 52.4371L55.6799 75.4389C55.3672 79.5967 57.2925 82.711 58.9051 80.7665L67.9896 69.9058L77.0742 80.7665C78.6867 82.6952 80.6121 79.5967 80.2993 75.4389L78.5616 52.4371L85.9085 36.154C87.2291 33.2293 86.4993 28.1231 84.6782 27.5224L74.5233 24.1551L69.9845 3.22418C69.1712 -0.506705 66.815 -0.554131 65.9948 3.22418Z" fill="#FFF85A"/>
<path d="M115.176 3.22418L110.638 24.1551L100.483 27.5224C98.6616 28.1231 97.9317 33.2293 99.2524 36.154L106.599 52.4371L104.862 75.4389C104.549 79.5967 106.474 82.711 108.087 80.7665L117.171 69.9058L126.256 80.7665C127.868 82.6952 129.794 79.5967 129.481 75.4389L127.743 52.4371L135.09 36.154C136.411 33.2293 135.681 28.1231 133.86 27.5224L123.705 24.1551L119.166 3.22418C118.353 -0.506705 115.997 -0.554131 115.176 3.22418Z" fill="#FFF85A"/>
<path d="M227.425 27.5253L217.271 24.156L212.733 3.2241C212.325 1.35369 211.529 0.408203 210.733 0.408203C209.942 0.408203 209.152 1.34104 208.743 3.2241L204.204 24.1544L194.048 27.5205C192.227 28.1214 191.497 33.2267 192.818 36.1517L200.164 52.4368L198.425 75.4383C198.178 78.7238 199.329 81.3594 200.618 81.3594C200.96 81.3594 201.312 81.1744 201.65 80.7665L210.735 69.9077L219.819 80.7697C220.156 81.1729 220.507 81.3563 220.848 81.3563C222.138 81.3563 223.291 78.7301 223.044 75.443L221.308 52.4399L228.655 36.158C229.976 33.233 229.246 28.1261 227.425 27.5253ZM218.979 47.0042L217.722 49.79L218.019 53.7238L219.373 71.6611L212.288 63.1881L210.735 61.3319L210.737 11.1817L214.278 27.5126L215.053 31.0906L216.789 31.6661L224.713 34.2955L218.979 47.0042Z" fill="#FFF85A"/>
</svg>
