<svg width="242" height="47" viewBox="0 0 242 47" fill="none" xmlns="http://www.w3.org/2000/svg">
<path d="M237.429 28.6206H219.755L220.15 31.4827H236.333C237.261 31.4827 237.949 32.7618 237.744 34.105L237.411 36.2762C238.538 37.0877 239.315 38.8013 239.315 40.7844C239.315 43.5751 237.776 45.8327 235.889 45.7925C234.091 45.7541 232.612 43.5895 232.564 40.9228C232.537 39.4661 232.931 38.1458 233.577 37.2067H220.937C221.563 38.116 221.952 39.3825 221.952 40.7844C221.952 43.6297 220.352 45.921 218.415 45.7875C216.694 45.669 215.295 43.6065 215.204 41.0546C215.134 39.0839 215.833 37.3469 216.895 36.4408L212.66 5.72413H208.447C207.648 5.72413 207 4.7631 207 3.57758V2.14655C207 0.961027 207.648 0 208.447 0H214.628C215.316 0 215.908 0.717394 216.046 1.71634L216.599 5.72413H240.279C241.207 5.72413 241.896 7.0032 241.69 8.3464L238.84 26.9498C238.69 27.9271 238.105 28.6206 237.429 28.6206ZM231.598 15.0258H228.704V11.4483C228.704 10.6579 228.272 10.0172 227.739 10.0172H226.775C226.242 10.0172 225.81 10.6579 225.81 11.4483V15.0258H222.916C222.384 15.0258 221.952 15.6665 221.952 16.4569V17.8879C221.952 18.6783 222.384 19.3189 222.916 19.3189H225.81V22.8965C225.81 23.6869 226.242 24.3275 226.775 24.3275H227.739C228.272 24.3275 228.704 23.6869 228.704 22.8965V19.3189H231.598C232.131 19.3189 232.563 18.6783 232.563 17.8879V16.4569C232.563 15.6665 232.131 15.0258 231.598 15.0258Z" fill="black"/>
<path d="M219.755 28.1206H219.182L219.26 28.6889L219.655 31.551L219.714 31.9827H220.15H236.333C236.545 31.9827 236.81 32.1315 237.023 32.527C237.231 32.913 237.337 33.4579 237.249 34.0293L236.917 36.2005L236.871 36.5031L237.119 36.6819C238.078 37.3723 238.815 38.9091 238.815 40.7844C238.815 42.0931 238.453 43.2537 237.897 44.068C237.339 44.8849 236.623 45.308 235.9 45.2926C235.212 45.2779 234.525 44.8542 233.983 44.0613C233.444 43.2721 233.086 42.1619 233.064 40.9137C233.039 39.5469 233.409 38.3321 233.989 37.4902L234.528 36.7067H233.577H220.937H219.986L220.525 37.4902C221.086 38.3052 221.452 39.4698 221.452 40.7844C221.452 42.119 221.076 43.2991 220.501 44.1151C219.925 44.9327 219.191 45.3398 218.449 45.2887C217.788 45.2431 217.131 44.8188 216.612 44.0529C216.095 43.2906 215.746 42.2308 215.704 41.0369C215.638 39.176 216.303 37.6035 217.22 36.8211L217.428 36.6435L217.391 36.3725L213.155 5.65583L213.096 5.22413H212.66H208.447C208.264 5.22413 208.039 5.11428 207.838 4.81595C207.639 4.52062 207.5 4.08428 207.5 3.57758V2.14655C207.5 1.63985 207.639 1.20351 207.838 0.908177C208.039 0.609845 208.264 0.5 208.447 0.5H214.628C214.786 0.5 214.975 0.581304 215.158 0.801965C215.34 1.02303 215.492 1.36099 215.551 1.78465L216.103 5.79242L216.163 6.22413H216.599H240.279C240.492 6.22413 240.757 6.37295 240.969 6.76848C241.177 7.15446 241.283 7.69934 241.196 8.27069L238.346 26.8741L238.84 26.9498L238.346 26.8741C238.282 27.2879 238.13 27.6155 237.95 27.8291C237.77 28.0421 237.584 28.1206 237.429 28.1206H219.755ZM231.598 14.5258H229.204V11.4483C229.204 10.967 229.073 10.509 228.836 10.1569C228.601 9.80779 228.222 9.51722 227.739 9.51722H226.775C226.292 9.51722 225.913 9.80779 225.678 10.1569C225.441 10.509 225.31 10.967 225.31 11.4483V14.5258H222.916C222.433 14.5258 222.055 14.8164 221.82 15.1655C221.582 15.5176 221.452 15.9756 221.452 16.4569V17.8879C221.452 18.3691 221.582 18.8272 221.82 19.1793C222.055 19.5284 222.433 19.8189 222.916 19.8189H225.31V22.8965C225.31 23.3777 225.441 23.8358 225.678 24.1879C225.913 24.537 226.292 24.8275 226.775 24.8275H227.739C228.222 24.8275 228.601 24.537 228.836 24.1879C229.073 23.8358 229.204 23.3777 229.204 22.8965V19.8189H231.598C232.081 19.8189 232.459 19.5284 232.695 19.1793C232.932 18.8272 233.063 18.3691 233.063 17.8879V16.4569C233.063 15.9756 232.932 15.5176 232.695 15.1655C232.459 14.8164 232.081 14.5258 231.598 14.5258Z" stroke="black" stroke-opacity="0.32"/>
<path d="M29.6253 40.7631L23.7765 32.4837C23.5125 32.11 23.1547 31.9024 22.7792 31.9024H21.823C23.4421 28.971 24.4042 25.2839 24.4042 21.2729C24.4042 11.7313 18.9426 4 12.2021 4C5.46161 4 0 11.7313 0 21.2729C0 30.8145 5.46161 38.5458 12.2021 38.5458C15.0356 38.5458 17.6402 37.1839 19.7111 34.8919V36.2455C19.7111 36.777 19.8577 37.2836 20.1217 37.6573L25.9705 45.9366C26.522 46.7172 27.4137 46.7172 27.9592 45.9366L29.6194 43.5865C30.1709 42.8059 30.1709 41.5437 29.6253 40.7631ZM12.2021 31.9024C8.05456 31.9024 4.69312 27.1523 4.69312 21.2729C4.69312 15.4018 8.04869 10.6434 12.2021 10.6434C16.3496 10.6434 19.7111 15.3935 19.7111 21.2729C19.7111 27.144 16.3555 31.9024 12.2021 31.9024Z" fill="#120000"/>
<path d="M21.3853 31.6607L20.9756 32.4024H21.823H22.7792C22.957 32.4024 23.1755 32.4995 23.3681 32.7722L29.2155 41.0495C29.2157 41.0498 29.2159 41.0501 29.216 41.0503C29.4189 41.341 29.5344 41.746 29.5337 42.1741C29.5331 42.6026 29.4163 43.0075 29.211 43.298L27.5508 45.6482L27.5494 45.6502C27.3507 45.9345 27.1326 46.0221 26.9671 46.0221C26.8011 46.0221 26.5808 45.934 26.3789 45.6482L20.5301 37.3688C20.3353 37.0931 20.2111 36.6917 20.2111 36.2455V34.8919V33.5927L19.3401 34.5567C17.3423 36.7678 14.8647 38.0458 12.2021 38.0458C9.03766 38.0458 6.12422 36.2318 3.98175 33.199C1.84016 30.1674 0.5 25.9528 0.5 21.2729C0.5 16.593 1.84016 12.3784 3.98175 9.34684C6.12422 6.31402 9.03766 4.5 12.2021 4.5C15.3665 4.5 18.28 6.31402 20.4225 9.34684C22.564 12.3784 23.9042 16.593 23.9042 21.2729C23.9042 25.2061 22.9604 28.809 21.3853 31.6607ZM4.19312 21.2729C4.19312 24.3035 5.05868 27.0645 6.48397 29.081C7.90844 31.0964 9.92281 32.4024 12.2021 32.4024C14.4845 32.4024 16.4989 31.0941 17.9226 29.0777C19.347 27.0602 20.2111 24.2993 20.2111 21.2729C20.2111 18.2423 19.3455 15.4813 17.9202 13.4648C16.4958 11.4494 14.4814 10.1434 12.2021 10.1434C9.91968 10.1434 7.90529 11.4517 6.48163 13.4681C5.05716 15.4856 4.19312 18.2466 4.19312 21.2729Z" stroke="black" stroke-opacity="0.32"/>
</svg>
