<svg width="249" height="46" viewBox="0 0 249 46" fill="none" xmlns="http://www.w3.org/2000/svg">
<path d="M244.168 28.6931H226.646L227.037 31.5624H243.081C244.002 31.5624 244.684 32.8447 244.48 34.1913L244.15 36.368C245.267 37.1815 246.038 38.8995 246.038 40.8876C246.038 43.6854 244.512 45.9487 242.641 45.9084C240.859 45.8699 239.393 43.6998 239.345 41.0263C239.318 39.5659 239.708 38.2423 240.349 37.3009H227.818C228.438 38.2124 228.823 39.4822 228.823 40.8876C228.823 43.7402 227.238 46.0372 225.317 45.9033C223.611 45.7845 222.223 43.7168 222.134 41.1585C222.064 39.1828 222.757 37.4414 223.81 36.533L219.612 5.73861H215.435C214.642 5.73861 214 4.77515 214 3.58663V2.15198C214 0.963459 214.642 0 215.435 0H221.563C222.244 0 222.832 0.71921 222.968 1.72069L223.516 5.73861H246.993C247.914 5.73861 248.596 7.02092 248.392 8.36753L245.567 27.018C245.418 27.9978 244.838 28.6931 244.168 28.6931ZM238.387 15.0639H235.518V11.4772C235.518 10.6848 235.09 10.0426 234.562 10.0426H233.605C233.077 10.0426 232.649 10.6848 232.649 11.4772V15.0639H229.78C229.252 15.0639 228.823 15.7061 228.823 16.4985V17.9332C228.823 18.7255 229.252 19.3678 229.78 19.3678H232.649V22.9544C232.649 23.7468 233.077 24.3891 233.605 24.3891H234.562C235.09 24.3891 235.518 23.7468 235.518 22.9544V19.3678H238.387C238.915 19.3678 239.343 18.7255 239.343 17.9332V16.4985C239.343 15.7061 238.915 15.0639 238.387 15.0639Z" fill="black"/>
<path d="M226.646 28.1931H226.073L226.151 28.7606L226.542 31.6299L226.601 32.0624H227.037H243.081C243.287 32.0624 243.549 32.2085 243.761 32.6067C243.967 32.9945 244.073 33.5421 243.986 34.1164L243.656 36.2931L243.61 36.5934L243.856 36.7722C244.806 37.4638 245.538 39.0053 245.538 40.8876C245.538 42.2009 245.179 43.3655 244.627 44.1823C244.073 45.0022 243.365 45.4239 242.652 45.4085C241.974 45.3938 241.294 44.9714 240.757 44.1756C240.222 43.3841 239.867 42.27 239.844 41.0173C239.82 39.6457 240.188 38.4267 240.762 37.5822L241.294 36.8009H240.349H227.818H226.873L227.404 37.5822C227.961 38.3997 228.323 39.5683 228.323 40.8876C228.323 42.227 227.95 43.4111 227.38 44.2296C226.809 45.0502 226.082 45.4555 225.351 45.4045C224.7 45.3592 224.05 44.9359 223.534 44.1672C223.021 43.4026 222.675 42.3391 222.633 41.141C222.568 39.2732 223.228 37.6957 224.137 36.9116L224.342 36.7343L224.306 36.4654L220.107 5.67106L220.048 5.23861H219.612H215.435C215.258 5.23861 215.036 5.13102 214.836 4.83098C214.639 4.53444 214.5 4.09596 214.5 3.58663V2.15198C214.5 1.64265 214.639 1.20417 214.836 0.907628C215.036 0.607588 215.258 0.5 215.435 0.5H221.563C221.716 0.5 221.902 0.579511 222.083 0.801077C222.264 1.02286 222.415 1.36235 222.473 1.78824C222.473 1.78824 222.473 1.78825 222.473 1.78825L223.021 5.80617L223.08 6.23861H223.516H246.993C247.199 6.23861 247.461 6.38471 247.673 6.78296C247.88 7.17072 247.985 7.71836 247.898 8.29263L245.072 26.9431L245.561 27.0171L245.072 26.9431C245.009 27.3591 244.858 27.6882 244.679 27.9025C244.501 28.1162 244.318 28.1931 244.168 28.1931H226.646ZM238.387 14.5639H236.018V11.4772C236.018 10.9961 235.889 10.5379 235.654 10.1854C235.421 9.8364 235.045 9.54257 234.562 9.54257H233.605C233.122 9.54257 232.746 9.8364 232.513 10.1854C232.278 10.5379 232.149 10.9961 232.149 11.4772V14.5639H229.78C229.296 14.5639 228.92 14.8577 228.687 15.2067C228.453 15.5592 228.323 16.0174 228.323 16.4985V17.9332C228.323 18.4143 228.453 18.8725 228.687 19.225C228.92 19.574 229.296 19.8678 229.78 19.8678H232.149V22.9544C232.149 23.4356 232.278 23.8937 232.513 24.2463C232.746 24.5953 233.122 24.8891 233.605 24.8891H234.562C235.045 24.8891 235.421 24.5953 235.654 24.2463C235.889 23.8937 236.018 23.4356 236.018 22.9544V19.8678H238.387C238.87 19.8678 239.247 19.574 239.479 19.225C239.714 18.8725 239.843 18.4143 239.843 17.9332V16.4985C239.843 16.0174 239.714 15.5592 239.479 15.2067C239.247 14.8577 238.87 14.5639 238.387 14.5639Z" stroke="black" stroke-opacity="0.32"/>
<path d="M35.079 32.6705L28.1535 28.0153C27.8409 27.8052 27.4172 27.6885 26.9726 27.6885H25.8404C27.7575 26.0403 28.8967 23.9671 28.8967 21.7119C28.8967 16.347 22.4297 12 14.4484 12C6.46704 12 0 16.347 0 21.7119C0 27.0768 6.46704 31.4238 14.4484 31.4238C17.8035 31.4238 20.8876 30.6581 23.3397 29.3694V30.1305C23.3397 30.4293 23.5133 30.7141 23.8259 30.9242L30.7514 35.5794C31.4044 36.0183 32.4602 36.0183 33.1062 35.5794L35.072 34.258C35.725 33.8191 35.725 33.1094 35.079 32.6705ZM14.4484 27.6885C9.53732 27.6885 5.55707 25.0177 5.55707 21.7119C5.55707 18.4108 9.53037 15.7354 14.4484 15.7354C19.3594 15.7354 23.3397 18.4061 23.3397 21.7119C23.3397 25.013 19.3664 27.6885 14.4484 27.6885Z" fill="#120000"/>
<path d="M25.5144 27.3093L24.4918 28.1885H25.8404H26.9726C27.3369 28.1885 27.6589 28.2854 27.8746 28.4303L34.798 33.0841C34.7983 33.0843 34.7985 33.0845 34.7988 33.0846C35.0181 33.2339 35.0629 33.3796 35.0626 33.4628C35.0624 33.546 35.0167 33.6928 34.7931 33.8431L32.8273 35.1644L32.8252 35.1658C32.6019 35.3175 32.28 35.4086 31.9314 35.4086C31.583 35.4086 31.2582 35.3176 31.0304 35.1644L24.1049 30.5093C23.891 30.3655 23.8397 30.2203 23.8397 30.1305V29.3694V28.5418L23.1071 28.9268C20.7331 30.1744 17.7299 30.9238 14.4484 30.9238C10.5434 30.9238 7.03145 29.8595 4.51012 28.1647C1.9857 26.4679 0.5 24.1772 0.5 21.7119C0.5 19.2467 1.9857 16.956 4.51012 15.2591C7.03145 13.5643 10.5434 12.5 14.4484 12.5C18.3533 12.5 21.8653 13.5643 24.3866 15.2591C26.9111 16.956 28.3967 19.2467 28.3967 21.7119C28.3967 23.7867 27.3505 25.7308 25.5144 27.3093ZM5.05707 21.7119C5.05707 23.5819 6.1831 25.2134 7.88225 26.3549C9.58435 27.4984 11.9073 28.1885 14.4484 28.1885C16.993 28.1885 19.316 27.4972 21.0173 26.353C22.7156 25.2108 23.8397 23.5794 23.8397 21.7119C23.8397 19.8419 22.7136 18.2104 21.0145 17.0689C19.3124 15.9254 16.9895 15.2354 14.4484 15.2354C11.9037 15.2354 9.58072 15.9266 7.87943 17.0708C6.18114 18.213 5.05707 19.8444 5.05707 21.7119Z" stroke="black" stroke-opacity="0.32"/>
</svg>
