<svg width="228" height="44" viewBox="0 0 228 44" fill="none" xmlns="http://www.w3.org/2000/svg">
<path d="M223.707 27.1149H206.453L206.838 29.8264H222.637C223.543 29.8264 224.215 31.0382 224.014 32.3108L223.689 34.3678C224.79 35.1366 225.548 36.7601 225.548 38.6388C225.548 41.2827 224.046 43.4215 222.204 43.3834C220.448 43.347 219.005 41.2963 218.957 38.7699C218.931 37.3898 219.315 36.139 219.946 35.2493H207.607C208.217 36.1107 208.597 37.3107 208.597 38.6388C208.597 41.3344 207.036 43.5052 205.144 43.3787C203.464 43.2664 202.098 41.3124 202.009 38.8948C201.941 37.0277 202.624 35.3821 203.66 34.5237L199.526 5.42299H195.413C194.632 5.42299 194 4.51252 194 3.38937V2.03362C194 0.910469 194.632 0 195.413 0H201.447C202.118 0 202.697 0.679653 202.831 1.62605L203.371 5.42299H226.489C227.396 5.42299 228.068 6.63477 227.867 7.90731L225.084 25.532C224.938 26.4579 224.366 27.1149 223.707 27.1149ZM218.014 14.2353H215.189V10.846C215.189 10.0972 214.767 9.49023 214.247 9.49023H213.306C212.785 9.49023 212.364 10.0972 212.364 10.846V14.2353H209.539C209.019 14.2353 208.597 14.8423 208.597 15.5911V16.9468C208.597 17.6956 209.019 18.3026 209.539 18.3026H212.364V21.692C212.364 22.4408 212.785 23.0477 213.306 23.0477H214.247C214.767 23.0477 215.189 22.4408 215.189 21.692V18.3026H218.014C218.534 18.3026 218.956 17.6956 218.956 16.9468V15.5911C218.956 14.8423 218.534 14.2353 218.014 14.2353Z" fill="black"/>
<path d="M206.453 26.6149H205.877L205.958 27.1853L206.343 29.8968L206.404 30.3264H206.838H222.637C222.846 30.3264 223.1 30.4677 223.303 30.8339C223.502 31.1927 223.604 31.7001 223.52 32.2328L223.196 34.2898L223.147 34.5986L223.403 34.7776C224.333 35.4276 225.048 36.8735 225.048 38.6388C225.048 39.8709 224.697 40.963 224.158 41.729C223.618 42.4964 222.922 42.8982 222.214 42.8835C221.541 42.8696 220.873 42.4677 220.349 41.7227C219.826 40.9802 219.479 39.9355 219.457 38.7605C219.433 37.4737 219.792 36.3306 220.354 35.5386L220.914 34.7493H219.946H207.607H206.639L207.199 35.5385C207.742 36.3053 208.097 37.4011 208.097 38.6388C208.097 39.8953 207.732 41.0057 207.175 41.7734C206.618 42.5415 205.904 42.9284 205.177 42.8798C204.53 42.8365 203.893 42.4345 203.39 41.7148C202.888 40.9976 202.55 40.0004 202.509 38.8765C202.445 37.1246 203.09 35.6451 203.979 34.9088L204.195 34.7304L204.155 34.4533L200.021 5.35265L199.96 4.92299H199.526H195.413C195.232 4.92299 195.016 4.81829 194.824 4.54211C194.634 4.26777 194.5 3.86176 194.5 3.38937V2.03362C194.5 1.56123 194.634 1.15522 194.824 0.880876C195.016 0.604695 195.232 0.5 195.413 0.5H201.447C201.748 0.5 202.216 0.853706 202.336 1.6964L202.876 5.49333L202.937 5.92299H203.371H226.489C226.699 5.92299 226.953 6.06429 227.156 6.4304C227.355 6.7893 227.457 7.2967 227.373 7.82934L224.59 25.4541L225.084 25.532L224.59 25.4541C224.461 26.2753 224.003 26.6149 223.707 26.6149H206.453ZM218.014 13.7353H215.689V10.846C215.689 10.3824 215.559 9.94107 215.324 9.60206C215.09 9.26488 214.717 8.99023 214.247 8.99023H213.306C212.836 8.99023 212.463 9.26488 212.229 9.60206C211.994 9.94107 211.864 10.3824 211.864 10.846V13.7353H209.539C209.069 13.7353 208.696 14.01 208.462 14.3472C208.227 14.6862 208.097 15.1275 208.097 15.5911V16.9468C208.097 17.4104 208.227 17.8517 208.462 18.1908C208.696 18.5279 209.069 18.8026 209.539 18.8026H211.864V21.692C211.864 22.1555 211.994 22.5969 212.229 22.9359C212.463 23.2731 212.836 23.5477 213.306 23.5477H214.247C214.717 23.5477 215.09 23.2731 215.324 22.9359C215.559 22.5969 215.689 22.1555 215.689 21.692V18.8026H218.014C218.484 18.8026 218.857 18.5279 219.091 18.1908C219.326 17.8517 219.456 17.4104 219.456 16.9468V15.5911C219.456 15.1275 219.326 14.6862 219.091 14.3472C218.857 14.01 218.484 13.7353 218.014 13.7353Z" stroke="black" stroke-opacity="0.32"/>
<path d="M28.9007 27.1082L23.195 22.3545C22.9374 22.1399 22.5883 22.0207 22.2221 22.0207H21.2892C22.8688 20.3376 23.8073 18.2206 23.8073 15.9176C23.8073 10.4391 18.4793 6 11.9037 6C5.32803 6 0 10.4391 0 15.9176C0 21.3961 5.32803 25.8352 11.9037 25.8352C14.6678 25.8352 17.2088 25.0532 19.229 23.7372V24.5144C19.229 24.8196 19.3721 25.1104 19.6296 25.325L25.3353 30.0787C25.8733 30.5269 26.7432 30.5269 27.2754 30.0787L28.895 28.7294C29.433 28.2812 29.433 27.5564 28.9007 27.1082ZM11.9037 22.0207C7.85756 22.0207 4.57833 19.2934 4.57833 15.9176C4.57833 12.5466 7.85184 9.81445 11.9037 9.81445C15.9498 9.81445 19.229 12.5418 19.229 15.9176C19.229 19.2886 15.9555 22.0207 11.9037 22.0207Z" fill="#120000"/>
<path d="M20.9246 21.6786L20.1343 22.5207H21.2892H22.2221C22.4839 22.5207 22.7164 22.6065 22.8749 22.7386L28.5787 27.4907C28.5789 27.4909 28.5791 27.4911 28.5794 27.4913C28.7401 27.627 28.7995 27.783 28.7992 27.9176C28.7989 28.0522 28.7387 28.2088 28.5749 28.3452L26.9554 29.6946L26.9533 29.6963C26.6082 29.9869 26.0089 29.9892 25.6554 29.6946L19.9497 24.9408C19.7943 24.8114 19.729 24.6564 19.729 24.5144V23.7372V22.8148L18.9561 23.3183C17.0198 24.5796 14.5742 25.3352 11.9037 25.3352C5.51484 25.3352 0.5 21.0384 0.5 15.9176C0.5 10.7968 5.51484 6.5 11.9037 6.5C18.2925 6.5 23.3073 10.7968 23.3073 15.9176C23.3073 18.0786 22.4279 20.0767 20.9246 21.6786ZM4.07833 15.9176C4.07833 19.6513 7.67103 22.5207 11.9037 22.5207C16.1426 22.5207 19.729 19.6461 19.729 15.9176C19.729 12.1838 16.1363 9.31445 11.9037 9.31445C7.66476 9.31445 4.07833 12.1891 4.07833 15.9176Z" stroke="black" stroke-opacity="0.32"/>
</svg>
