<svg width="237" height="82" viewBox="0 0 237 82" fill="none" xmlns="http://www.w3.org/2000/svg">
<path d="M17.1035 2.83985L12.4265 23.9482L1.96249 27.344C0.0859811 27.9499 -0.666055 33.0994 0.694772 36.0488L8.26527 52.47L6.47471 75.6669C6.15241 79.8598 8.13635 83.0006 9.79799 81.0396L19.159 70.0869L28.5201 81.0396C30.1818 82.9846 32.1657 79.8598 31.8434 75.6669L30.0528 52.47L37.6233 36.0488C38.9842 33.0994 38.2321 27.9499 36.3556 27.344L25.8916 23.9482L21.2146 2.83985C20.3766 -0.922665 17.9486 -0.970494 17.1035 2.83985Z" fill="#FFF85A"/>
<path d="M169.14 2.83985L164.463 23.9482L153.999 27.344C152.122 27.9499 151.37 33.0994 152.731 36.0488L160.301 52.47L158.511 75.6669C158.189 79.8598 160.172 83.0006 161.834 81.0396L171.195 70.0869L180.556 81.0396C182.218 82.9846 184.202 79.8598 183.88 75.6669L182.089 52.47L189.659 36.0488C191.02 33.0994 190.268 27.9499 188.392 27.344L177.928 23.9482L173.251 2.83985C172.413 -0.922665 169.985 -0.970494 169.14 2.83985Z" fill="#FFF85A"/>
<path d="M67.7822 2.83985L63.1052 23.9482L52.6412 27.344C50.7647 27.9499 50.0127 33.0994 51.3735 36.0488L58.944 52.47L57.1534 75.6669C56.8311 79.8598 58.8151 83.0006 60.4767 81.0396L69.8378 70.0869L79.1988 81.0396C80.8605 82.9846 82.8444 79.8598 82.5221 75.6669L80.7315 52.47L88.302 36.0488C89.6629 33.0994 88.9108 27.9499 87.0343 27.344L76.5703 23.9482L71.8933 2.83985C71.0553 -0.922665 68.6273 -0.970494 67.7822 2.83985Z" fill="#FFF85A"/>
<path d="M118.461 2.83985L113.784 23.9482L103.32 27.344C101.444 27.9499 100.692 33.0994 102.053 36.0488L109.623 52.47L107.833 75.6669C107.51 79.8598 109.494 83.0006 111.156 81.0396L120.517 70.0869L129.878 81.0396C131.54 82.9846 133.524 79.8598 133.201 75.6669L131.411 52.47L138.981 36.0488C140.342 33.0994 139.59 27.9499 137.714 27.344L127.249 23.9482L122.573 2.83985C121.735 -0.922665 119.307 -0.970494 118.461 2.83985Z" fill="#FFF85A"/>
<path d="M234.127 27.347L223.663 23.9491L218.987 2.83978C218.567 0.953501 217.747 0 216.927 0C216.112 0 215.297 0.940745 214.876 2.83978L210.198 23.9476L199.734 27.3422C197.857 27.9481 197.105 33.0967 198.465 36.0465L206.035 52.4697L204.244 75.6662C203.989 78.9796 205.175 81.6376 206.504 81.6376C206.856 81.6376 207.218 81.451 207.567 81.0396L216.928 70.0887L226.289 81.0428C226.636 81.4494 226.998 81.6344 227.349 81.6344C228.679 81.6344 229.867 78.9859 229.612 75.671L227.823 52.4729L235.394 36.0529C236.755 33.1031 236.003 27.9529 234.127 27.347ZM225.424 46.991L224.128 49.8005L224.434 53.7676L225.83 71.857L218.529 63.3122L216.929 61.4402L216.931 10.8648L220.579 27.3342L221.378 30.9426L223.166 31.5229L231.332 34.1746L225.424 46.991Z" fill="#FFF85A"/>
</svg>
