<svg width="251" height="50" viewBox="0 0 251 50" fill="none" xmlns="http://www.w3.org/2000/svg">
<path d="M246.437 28.4076H228.759L229.154 31.2483H245.34C246.269 31.2483 246.958 32.5179 246.752 33.8511L246.419 36.0061C247.546 36.8116 248.323 38.5125 248.323 40.4808C248.323 43.2507 246.785 45.4915 244.897 45.4516C243.098 45.4135 241.619 43.265 241.571 40.6181C241.544 39.1722 241.938 37.8618 242.584 36.9297H229.941C230.567 37.8322 230.956 39.0893 230.956 40.4808C230.956 43.3049 229.356 45.5791 227.418 45.4466C225.696 45.329 224.297 43.2818 224.206 40.749C224.136 38.7929 224.836 37.0688 225.898 36.1695L221.662 5.68151H217.447C216.648 5.68151 216 4.72764 216 3.55095V2.13057C216 0.953873 216.648 0 217.447 0H223.63C224.318 0 224.91 0.712053 225.048 1.70357L225.601 5.68151H249.288C250.216 5.68151 250.905 6.95106 250.699 8.28427L247.848 26.7492C247.699 27.7192 247.113 28.4076 246.437 28.4076ZM240.604 14.914H237.71V11.363C237.71 10.5785 237.278 9.94265 236.745 9.94265H235.78C235.247 9.94265 234.815 10.5785 234.815 11.363V14.914H231.921C231.388 14.914 230.956 15.5499 230.956 16.3343V17.7547C230.956 18.5392 231.388 19.1751 231.921 19.1751H234.815V22.726C234.815 23.5105 235.247 24.1464 235.78 24.1464H236.745C237.278 24.1464 237.71 23.5105 237.71 22.726V19.1751H240.604C241.137 19.1751 241.569 18.5392 241.569 17.7547V16.3343C241.569 15.5499 241.137 14.914 240.604 14.914Z" fill="black"/>
<path d="M228.759 27.9076H228.185L228.264 28.4764L228.658 31.3171L228.718 31.7483H229.154H245.34C245.555 31.7483 245.82 31.8972 246.032 32.2881C246.239 32.6701 246.345 33.2093 246.258 33.7748L245.925 35.9299L245.878 36.234L246.128 36.4129C247.087 37.0978 247.823 38.6217 247.823 40.4808C247.823 41.7782 247.462 42.9289 246.906 43.7363C246.349 44.546 245.633 44.967 244.907 44.9517C244.217 44.9371 243.53 44.5156 242.989 43.7297C242.451 42.9472 242.093 41.8464 242.07 40.6089C242.046 39.2538 242.416 38.0495 242.995 37.2147L243.539 36.4297H242.584H229.941H228.986L229.53 37.2146C230.091 38.0228 230.456 39.1774 230.456 40.4808C230.456 41.804 230.08 42.9739 229.506 43.7831C228.931 44.5935 228.196 44.9987 227.452 44.9478C226.789 44.9024 226.132 44.4805 225.613 43.7213C225.096 42.9655 224.748 41.9148 224.706 40.7311C224.64 38.8862 225.304 37.3271 226.221 36.5511L226.431 36.3733L226.393 36.1007L222.157 5.6127L222.097 5.18151H221.662H217.447C217.262 5.18151 217.038 5.07149 216.838 4.77653C216.639 4.48424 216.5 4.05244 216.5 3.55095V2.13057C216.5 1.62907 216.639 1.19727 216.838 0.904983C217.038 0.610017 217.262 0.5 217.447 0.5H223.63C223.79 0.5 223.979 0.581503 224.161 0.799828C224.343 1.01867 224.495 1.35312 224.553 1.77238C224.553 1.77239 224.553 1.77239 224.553 1.77239L225.106 5.75033L225.166 6.18151H225.601H249.288C249.502 6.18151 249.767 6.33038 249.979 6.72127C250.186 7.10325 250.292 7.64248 250.205 8.20798L247.354 26.6729L247.848 26.7492L247.354 26.6729C247.291 27.0824 247.139 27.4066 246.959 27.6181C246.78 27.8288 246.594 27.9076 246.437 27.9076H228.759ZM240.604 14.414H238.21V11.363C238.21 10.8839 238.079 10.428 237.841 10.0777C237.605 9.73005 237.226 9.44265 236.745 9.44265H235.78C235.299 9.44265 234.92 9.73005 234.684 10.0777C234.446 10.428 234.315 10.8839 234.315 11.363V14.414H231.921C231.439 14.414 231.061 14.7014 230.825 15.049C230.587 15.3993 230.456 15.8553 230.456 16.3343V17.7547C230.456 18.2338 230.587 18.6897 230.825 19.0401C231.061 19.3877 231.439 19.6751 231.921 19.6751H234.315V22.726C234.315 23.2051 234.446 23.6611 234.684 24.0114C234.92 24.359 235.299 24.6464 235.78 24.6464H236.745C237.226 24.6464 237.605 24.359 237.841 24.0114C238.079 23.6611 238.21 23.2051 238.21 22.726V19.6751H240.604C241.086 19.6751 241.464 19.3877 241.7 19.0401C241.938 18.6897 242.069 18.2338 242.069 17.7547V16.3343C242.069 15.8553 241.938 15.3993 241.7 15.049C241.464 14.7014 241.086 14.414 240.604 14.414Z" stroke="black" stroke-opacity="0.32"/>
<path d="M33.5376 45.3952L26.9164 38.7751C26.6176 38.4763 26.2125 38.3103 25.7874 38.3103H24.7049C26.5379 35.9664 27.627 33.0183 27.627 29.8112C27.627 22.1818 21.4441 16 13.8135 16C6.18287 16 0 22.1818 0 29.8112C0 37.4405 6.18287 43.6223 13.8135 43.6223C17.0212 43.6223 19.9698 42.5333 22.3141 40.7007V41.783C22.3141 42.208 22.4802 42.613 22.779 42.9118L29.4002 49.5319C30.0245 50.156 31.0339 50.156 31.6515 49.5319L33.531 47.6528C34.1552 47.0286 34.1552 46.0193 33.5376 45.3952ZM13.8135 38.3103C9.11825 38.3103 5.31289 34.5123 5.31289 29.8112C5.31289 25.1167 9.1116 21.312 13.8135 21.312C18.5088 21.312 22.3141 25.11 22.3141 29.8112C22.3141 34.5056 18.5154 38.3103 13.8135 38.3103Z" fill="#120000"/>
<path d="M24.3111 38.0023L23.6792 38.8103H24.7049H25.7874C26.0817 38.8103 26.3591 38.9249 26.5629 39.1287L33.1822 45.7469C33.1825 45.7472 33.1829 45.7475 33.1832 45.7479C33.6067 46.177 33.6064 46.8703 33.1774 47.2992L31.298 49.1783L31.2961 49.1802C30.8752 49.6056 30.1838 49.6083 29.7537 49.1783L23.1325 42.5582C22.9287 42.3545 22.8141 42.0772 22.8141 41.783V40.7007V39.6752L22.0062 40.3068C19.7469 42.073 16.9059 43.1223 13.8135 43.1223C6.45894 43.1223 0.5 37.1643 0.5 29.8112C0.5 22.458 6.45894 16.5 13.8135 16.5C21.1681 16.5 27.127 22.458 27.127 29.8112C27.127 32.903 26.0775 35.7434 24.3111 38.0023ZM4.81289 29.8112C4.81289 34.7887 8.84244 38.8103 13.8135 38.8103C18.7917 38.8103 22.8141 34.7816 22.8141 29.8112C22.8141 24.8336 18.7846 20.812 13.8135 20.812C8.83529 20.812 4.81289 24.8407 4.81289 29.8112Z" stroke="black" stroke-opacity="0.32"/>
</svg>
