<svg width="261" height="28" viewBox="0 0 261 28" fill="none" xmlns="http://www.w3.org/2000/svg">
<path d="M255.243 17.4364H233.462L233.948 19.1716H253.892C255.036 19.1716 255.884 19.947 255.631 20.7614L255.221 22.0777C256.61 22.5697 257.567 23.6086 257.567 24.8109C257.567 26.5028 255.671 27.8715 253.345 27.8471C251.129 27.8238 249.307 26.5115 249.247 24.8948C249.214 24.0116 249.699 23.2112 250.496 22.6419H234.918C235.689 23.1931 236.168 23.961 236.168 24.8109C236.168 26.5359 234.197 27.925 231.809 27.8441C229.689 27.7722 227.964 26.5218 227.852 24.9747C227.766 23.7799 228.628 22.7268 229.937 22.1775L224.717 3.55506H219.525C218.54 3.55506 217.742 2.97242 217.742 2.25368V1.38609C217.742 0.667354 218.54 0.0847168 219.525 0.0847168H227.143C227.99 0.0847168 228.72 0.519648 228.89 1.12528L229.571 3.55506H258.755C259.9 3.55506 260.748 4.33051 260.494 5.14485L256.982 16.4234C256.797 17.016 256.076 17.4364 255.243 17.4364ZM248.057 9.19435H244.49V7.02539C244.49 6.54622 243.958 6.15781 243.301 6.15781H242.113C241.456 6.15781 240.924 6.54622 240.924 7.02539V9.19435H237.357C236.701 9.19435 236.168 9.58276 236.168 10.0619V10.9295C236.168 11.4087 236.701 11.7971 237.357 11.7971H240.924V13.9661C240.924 14.4452 241.456 14.8337 242.113 14.8337H243.301C243.958 14.8337 244.49 14.4452 244.49 13.9661V11.7971H248.057C248.713 11.7971 249.245 11.4087 249.245 10.9295V10.0619C249.245 9.58276 248.713 9.19435 248.057 9.19435Z" fill="black"/>
<path d="M233.462 16.9364H232.802L232.98 17.5713L233.467 19.3065L233.569 19.6716H233.948H253.892C254.357 19.6716 254.729 19.8298 254.948 20.0301C255.162 20.2252 255.21 20.4299 255.153 20.6127L254.744 21.9291L254.6 22.3884L255.054 22.549C256.329 23.0007 257.067 23.899 257.067 24.8109C257.067 25.4563 256.707 26.0843 256.036 26.5668C255.367 27.0489 254.418 27.3583 253.35 27.3471C252.336 27.3365 251.429 27.0302 250.78 26.5628C250.129 26.0943 249.769 25.4915 249.747 24.8763C249.722 24.2036 250.088 23.548 250.786 23.0486L252.055 22.1419H250.496H234.918H233.359L234.628 23.0486C235.304 23.5322 235.668 24.1627 235.668 24.8109C235.668 25.4687 235.293 26.1091 234.598 26.5948C233.904 27.0798 232.923 27.3815 231.826 27.3443C230.856 27.3115 229.993 27.0089 229.371 26.5578C228.747 26.1057 228.394 25.529 228.351 24.9388C228.286 24.0356 228.936 23.1396 230.13 22.6385L230.537 22.4677L230.418 22.0425L225.199 3.42012L225.096 3.05506H224.717H219.525C219.127 3.05506 218.787 2.93667 218.559 2.77001C218.33 2.60305 218.242 2.41443 218.242 2.25368V1.38609C218.242 1.22534 218.33 1.03672 218.559 0.869763C218.787 0.703103 219.127 0.584717 219.525 0.584717H227.143C227.866 0.584717 228.323 0.953506 228.409 1.26022C228.409 1.26023 228.409 1.26023 228.409 1.26024L229.09 3.69L229.192 4.05506H229.571H258.755C259.22 4.05506 259.593 4.21327 259.812 4.41359C260.025 4.60864 260.074 4.81337 260.017 4.99619L256.504 16.2748L256.982 16.4234L256.504 16.2748C256.409 16.5801 255.951 16.9364 255.243 16.9364H233.462ZM248.057 8.69435H244.99V7.02539C244.99 6.5872 244.746 6.23358 244.437 6.00802C244.127 5.78218 243.724 5.65781 243.301 5.65781H242.113C241.69 5.65781 241.287 5.78218 240.977 6.00802C240.668 6.23358 240.424 6.5872 240.424 7.02539V8.69435H237.357C236.934 8.69435 236.531 8.81872 236.222 9.04457C235.913 9.27012 235.668 9.62375 235.668 10.0619V10.9295C235.668 11.3677 235.913 11.7213 236.222 11.9469C236.531 12.1727 236.934 12.2971 237.357 12.2971H240.424V13.9661C240.424 14.4043 240.668 14.7579 240.977 14.9834C241.287 15.2093 241.69 15.3337 242.113 15.3337H243.301C243.724 15.3337 244.127 15.2093 244.437 14.9834C244.746 14.7579 244.99 14.4043 244.99 13.9661V12.2971H248.057C248.48 12.2971 248.883 12.1727 249.192 11.9469C249.501 11.7213 249.745 11.3677 249.745 10.9295V10.0619C249.745 9.62374 249.501 9.27012 249.192 9.04457C248.883 8.81872 248.48 8.69435 248.057 8.69435Z" stroke="#CE7E60" stroke-opacity="0.32"/>
<path d="M27.522 22.0409L22.1794 18.2986C21.9383 18.1297 21.6114 18.0358 21.2684 18.0358H20.395C21.874 16.7108 22.7528 15.0442 22.7528 13.2312C22.7528 8.91831 17.7639 5.42371 11.6067 5.42371C5.44961 5.42371 0.460678 8.91831 0.460678 13.2312C0.460678 17.5441 5.44961 21.0387 11.6067 21.0387C14.195 21.0387 16.5742 20.4231 18.4659 19.3871V19.999C18.4659 20.2392 18.5998 20.4682 18.841 20.6371L24.1836 24.3794C24.6873 24.7323 25.5018 24.7323 26.0002 24.3794L27.5167 23.3171C28.0204 22.9643 28.0204 22.3938 27.522 22.0409ZM11.6067 18.0358C7.81815 18.0358 4.74763 15.8888 4.74763 13.2312C4.74763 10.5774 7.81279 8.42659 11.6067 8.42659C15.3953 8.42659 18.4659 10.5737 18.4659 13.2312C18.4659 15.885 15.4007 18.0358 11.6067 18.0358Z" fill="#120000"/>
<path d="M20.0613 17.6634L19.0876 18.5358H20.395H21.2684C21.527 18.5358 21.7493 18.6077 21.8926 18.7081L27.2331 22.449C27.2334 22.4492 27.2337 22.4494 27.234 22.4496C27.3778 22.5518 27.3952 22.6413 27.3951 22.6776C27.395 22.7138 27.3771 22.8045 27.2298 22.9076L25.7133 23.9699L25.7112 23.9713C25.5627 24.0765 25.341 24.144 25.0939 24.144C24.847 24.144 24.6228 24.0766 24.4704 23.9699L19.1278 20.2275C18.9873 20.1291 18.9659 20.0396 18.9659 19.999V19.3871V18.5432L18.2257 18.9486C16.4135 19.9411 14.118 20.5387 11.6067 20.5387C8.61821 20.5387 5.93469 19.6898 4.01165 18.3428C2.08709 16.9947 0.960678 15.1799 0.960678 13.2312C0.960678 11.2825 2.08709 9.46775 4.01165 8.11965C5.93469 6.77261 8.61821 5.92371 11.6067 5.92371C14.5953 5.92371 17.2788 6.77261 19.2018 8.11965C21.1264 9.46775 22.2528 11.2825 22.2528 13.2312C22.2528 14.8718 21.4594 16.4109 20.0613 17.6634ZM4.24763 13.2312C4.24763 14.7676 5.13599 16.106 6.46971 17.0397C7.80482 17.9744 9.62258 18.5358 11.6067 18.5358C13.5937 18.5358 15.4115 17.9734 16.746 17.0381C18.079 16.1039 18.9659 14.7655 18.9659 13.2312C18.9659 11.6948 18.0775 10.3564 16.7438 9.42272C15.4087 8.48801 13.5909 7.92659 11.6067 7.92659C9.61982 7.92659 7.80197 8.489 6.46749 9.42427C5.13444 10.3585 4.24763 11.6969 4.24763 13.2312Z" stroke="#CE7E60" stroke-opacity="0.32"/>
</svg>
