<svg width="232" height="82" viewBox="0 0 232 82" fill="none" xmlns="http://www.w3.org/2000/svg">
<path d="M16.7925 2.84677L12.2006 24.0066L1.9268 27.4107C0.0844176 28.018 -0.653943 33.1801 0.682138 36.1367L8.11497 52.5979L6.35697 75.8513C6.04053 80.0545 7.98839 83.2029 9.61982 81.2371L18.8107 70.2577L28.0015 81.2371C29.6329 83.1869 31.5808 80.0545 31.2643 75.8513L29.5063 52.5979L36.9392 36.1367C38.2752 33.1801 37.5369 28.018 35.6945 27.4107L25.4207 24.0066L20.8288 2.84677C20.0061 -0.924914 17.6222 -0.972859 16.7925 2.84677Z" fill="#FFF85A"/>
<path d="M166.063 2.84677L161.471 24.0066L151.197 27.4107C149.355 28.018 148.617 33.1801 149.953 36.1367L157.385 52.5979L155.627 75.8513C155.311 80.0545 157.259 83.2029 158.89 81.2371L168.081 70.2577L177.272 81.2371C178.903 83.1869 180.851 80.0545 180.535 75.8513L178.777 52.5979L186.21 36.1367C187.546 33.1801 186.807 28.018 184.965 27.4107L174.691 24.0066L170.099 2.84677C169.277 -0.924914 166.893 -0.972859 166.063 2.84677Z" fill="#FFF85A"/>
<path d="M66.5488 2.84677L61.9569 24.0066L51.6832 27.4107C49.8408 28.018 49.1024 33.1801 50.4385 36.1367L57.8713 52.5979L56.1133 75.8513C55.7969 80.0545 57.7447 83.2029 59.3762 81.2371L68.567 70.2577L77.7578 81.2371C79.3893 83.1869 81.3371 80.0545 81.0207 75.8513L79.2627 52.5979L86.6955 36.1367C88.0316 33.1801 87.2932 28.018 85.4508 27.4107L75.1771 24.0066L70.5852 2.84677C69.7624 -0.924914 67.3786 -0.972859 66.5488 2.84677Z" fill="#FFF85A"/>
<path d="M116.307 2.84677L111.715 24.0066L101.441 27.4107C99.5986 28.018 98.8602 33.1801 100.196 36.1367L107.629 52.5979L105.871 75.8513C105.555 80.0545 107.503 83.2029 109.134 81.2371L118.325 70.2577L127.516 81.2371C129.147 83.1869 131.095 80.0545 130.778 75.8513L129.02 52.5979L136.453 36.1367C137.789 33.1801 137.051 28.018 135.209 27.4107L124.935 24.0066L120.343 2.84677C119.52 -0.924914 117.136 -0.972859 116.307 2.84677Z" fill="#FFF85A"/>
<path d="M229.868 27.4136L219.594 24.0075L215.003 2.8467C214.591 0.955825 213.786 0 212.981 0C212.18 0 211.381 0.943038 210.967 2.8467L206.374 24.0059L196.1 27.4088C194.258 28.0162 193.519 33.1774 194.855 36.1343L202.287 52.5975L200.528 75.8506C200.279 79.172 201.443 81.8365 202.747 81.8365C203.093 81.8365 203.449 81.6495 203.791 81.2371L212.982 70.2595L222.172 81.2403C222.514 81.6479 222.869 81.8333 223.213 81.8333C224.519 81.8333 225.685 79.1784 225.435 75.8554L223.679 52.6007L231.112 36.1407C232.449 33.1838 231.71 28.021 229.868 27.4136ZM221.323 47.1055L220.051 49.9219L220.352 53.8986L221.722 72.0321L214.553 63.4665L212.983 61.59L212.985 10.8913L216.566 27.4009L217.351 31.018L219.107 31.5998L227.124 34.2579L221.323 47.1055Z" fill="#FFF85A"/>
</svg>
