<svg width="300" height="89" viewBox="0 0 300 89" fill="none" xmlns="http://www.w3.org/2000/svg">
<path d="M22.2772 3.54736L16.357 26.1822L3.11115 29.8236C0.735791 30.4733 -0.216166 35.9952 1.50642 39.1579L11.0895 56.7666L8.82289 81.6411C8.41491 86.1373 10.9263 89.5051 13.0296 87.4023L24.8792 75.6575L36.7288 87.4023C38.8322 89.488 41.3436 86.1373 40.9356 81.6411L38.669 56.7666L48.252 39.1579C49.9746 35.9952 49.0227 30.4733 46.6473 29.8236L33.4015 26.1822L27.4813 3.54736C26.4205 -0.487254 23.347 -0.538541 22.2772 3.54736Z" fill="#FFF85A"/>
<path d="M214.731 3.54736L208.811 26.1822L195.565 29.8236C193.189 30.4733 192.237 35.9952 193.96 39.1579L203.543 56.7666L201.277 81.6411C200.869 86.1373 203.38 89.5051 205.483 87.4023L217.333 75.6575L229.182 87.4023C231.286 89.488 233.797 86.1373 233.389 81.6411L231.123 56.7666L240.706 39.1579C242.428 35.9952 241.476 30.4733 239.101 29.8236L225.855 26.1822L219.935 3.54736C218.874 -0.487254 215.801 -0.538541 214.731 3.54736Z" fill="#FFF85A"/>
<path d="M86.4286 3.54736L80.5083 26.1822L67.2625 29.8236C64.8872 30.4733 63.9352 35.9952 65.6578 39.1579L75.2408 56.7666L72.9743 81.6411C72.5663 86.1373 75.0776 89.5051 77.181 87.4023L89.0306 75.6575L100.88 87.4023C102.984 89.488 105.495 86.1373 105.087 81.6411L102.82 56.7666L112.403 39.1579C114.126 35.9952 113.174 30.4733 110.799 29.8236L97.5529 26.1822L91.6326 3.54736C90.5719 -0.487254 87.4984 -0.538541 86.4286 3.54736Z" fill="#FFF85A"/>
<path d="M150.58 3.54736L144.659 26.1822L131.414 29.8236C129.038 30.4733 128.086 35.9952 129.809 39.158L139.392 56.7666L137.125 81.6411C136.717 86.1373 139.229 89.5051 141.332 87.4023L153.182 75.6575L165.031 87.4023C167.135 89.488 169.646 86.1373 169.238 81.6411L166.972 56.7666L176.555 39.158C178.277 35.9952 177.325 30.4733 174.95 29.8236L161.704 26.1822L155.784 3.54736C154.723 -0.487254 151.65 -0.538541 150.58 3.54736Z" fill="#FFF85A"/>
<path d="M296.994 29.8268L283.748 26.1832L277.829 3.54728C277.297 1.52459 276.259 0.502136 275.221 0.502136C274.189 0.502136 273.159 1.51091 272.625 3.54728L266.704 26.1815L253.458 29.8217C251.082 30.4714 250.13 35.9923 251.852 39.1554L261.434 56.7663L259.167 81.6404C258.845 85.1933 260.346 88.0435 262.027 88.0435C262.473 88.0435 262.932 87.8435 263.373 87.4024L275.223 75.6595L287.072 87.4058C287.512 87.8418 287.97 88.0401 288.414 88.0401C290.097 88.0401 291.601 85.2001 291.279 81.6455L289.014 56.7697L298.598 39.1623C300.321 35.9991 299.369 30.4765 296.994 29.8268ZM285.977 50.8914L284.337 53.9041L284.725 58.1581L286.491 77.5557L277.249 68.3929L275.224 66.3856L275.226 12.1527L279.844 29.8131L280.856 33.6824L283.119 34.3047L293.456 37.1481L285.977 50.8914Z" fill="#FFF85A"/>
</svg>
