<svg width="305" height="111" viewBox="0 0 305 111" fill="none" xmlns="http://www.w3.org/2000/svg">
<path d="M22.752 4.77552L16.7321 33.2297L3.26332 37.8073C0.847975 38.6239 -0.120007 45.5656 1.63158 49.5414L11.3759 71.6772L9.07121 102.947C8.65636 108.599 11.21 112.833 13.3488 110.189L25.3979 95.4248L37.4469 110.189C39.5857 112.811 42.1393 108.599 41.7245 102.947L39.4198 71.6772L49.1641 49.5414C50.9157 45.5656 49.9477 38.6239 47.5324 37.8073L34.0636 33.2297L28.0437 4.77552C26.9651 -0.296369 23.8399 -0.360842 22.752 4.77552Z" fill="#FFF85A"/>
<path d="M218.445 4.77555L212.425 33.2297L198.957 37.8073C196.541 38.624 195.573 45.5656 197.325 49.5414L207.069 71.6772L204.765 102.947C204.35 108.599 206.903 112.833 209.042 110.189L221.091 95.4248L233.14 110.189C235.279 112.811 237.833 108.599 237.418 102.947L235.113 71.6772L244.857 49.5414C246.609 45.5656 245.641 38.624 243.226 37.8073L229.757 33.2297L223.737 4.77555C222.658 -0.296339 219.533 -0.360812 218.445 4.77555Z" fill="#FFF85A"/>
<path d="M87.983 4.77555L81.9631 33.2297L68.4943 37.8073C66.0789 38.624 65.1109 45.5656 66.8625 49.5414L76.6069 71.6772L74.3022 102.947C73.8873 108.599 76.441 112.833 78.5797 110.189L90.6288 95.4248L102.678 110.189C104.817 112.811 107.37 108.599 106.955 102.947L104.651 71.6772L114.395 49.5414C116.147 45.5656 115.179 38.624 112.763 37.8073L99.2946 33.2297L93.2746 4.77555C92.196 -0.296339 89.0708 -0.360812 87.983 4.77555Z" fill="#FFF85A"/>
<path d="M153.214 4.77555L147.194 33.2297L133.725 37.8073C131.31 38.624 130.342 45.5656 132.093 49.5414L141.838 71.6772L139.533 102.947C139.118 108.599 141.672 112.833 143.811 110.189L155.86 95.4248L167.909 110.189C170.048 112.811 172.601 108.599 172.186 102.947L169.882 71.6772L179.626 49.5414C181.378 45.5656 180.41 38.624 177.994 37.8073L164.526 33.2297L158.506 4.77555C157.427 -0.296339 154.302 -0.360812 153.214 4.77555Z" fill="#FFF85A"/>
<path d="M302.093 37.8113L288.625 33.231L282.606 4.77545C282.065 2.23274 281.009 0.947418 279.954 0.947418C278.905 0.947418 277.857 2.21555 277.314 4.77545L271.293 33.2288L257.824 37.8048C255.409 38.6216 254.441 45.5619 256.192 49.5383L265.935 71.6768L263.629 102.946C263.302 107.412 264.828 110.995 266.538 110.995C266.992 110.995 267.458 110.744 267.906 110.189L279.956 95.4274L292.004 110.194C292.452 110.742 292.917 110.991 293.369 110.991C295.08 110.991 296.61 107.421 296.282 102.952L293.979 71.6811L303.724 49.5469C305.476 45.5705 304.508 38.6281 302.093 37.8113ZM290.891 64.2915L289.224 68.0787L289.617 73.4264L291.414 97.811L282.016 86.2925L279.957 83.7691L279.959 15.5932L284.655 37.7941L285.684 42.6581L287.985 43.4405L298.496 47.0149L290.891 64.2915Z" fill="#FFF85A"/>
</svg>
