<svg width="249" height="46" viewBox="0 0 249 46" fill="none" xmlns="http://www.w3.org/2000/svg">
<path d="M244.35 28.3756H226.722L227.116 31.2132H243.257C244.183 31.2132 244.869 32.4813 244.664 33.813L244.332 35.9657C245.456 36.7702 246.231 38.4692 246.231 40.4353C246.231 43.2021 244.697 45.4404 242.814 45.4005C241.021 45.3624 239.546 43.2163 239.497 40.5724C239.471 39.1282 239.863 37.8192 240.508 36.8882H227.901C228.525 37.7897 228.913 39.0454 228.913 40.4353C228.913 43.2562 227.318 45.5279 225.385 45.3955C223.669 45.278 222.273 43.2332 222.183 40.7032C222.113 38.7493 222.81 37.0272 223.87 36.1288L219.645 5.67513H215.443C214.646 5.67513 214 4.72232 214 3.54695V2.12817C214 0.9528 214.646 0 215.443 0H221.609C222.294 0 222.885 0.711253 223.022 1.70165L223.574 5.67513H247.193C248.119 5.67513 248.805 6.94325 248.6 8.27495L245.757 26.7191C245.608 27.688 245.024 28.3756 244.35 28.3756ZM238.534 14.8972H235.648V11.3503C235.648 10.5666 235.217 9.93147 234.686 9.93147H233.723C233.192 9.93147 232.761 10.5666 232.761 11.3503V14.8972H229.875C229.344 14.8972 228.913 15.5324 228.913 16.316V17.7348C228.913 18.5184 229.344 19.1535 229.875 19.1535H232.761V22.7005C232.761 23.4841 233.192 24.1193 233.723 24.1193H234.686C235.217 24.1193 235.648 23.4841 235.648 22.7005V19.1535H238.534C239.065 19.1535 239.496 18.5184 239.496 17.7348V16.316C239.496 15.5324 239.065 14.8972 238.534 14.8972Z" fill="black"/>
<path d="M226.722 27.8756H226.148L226.227 28.4443L226.621 31.2819L226.681 31.7132H227.116H243.257C243.47 31.7132 243.733 31.8612 243.945 32.2517C244.151 32.6332 244.257 33.1719 244.17 33.7369L243.838 35.8895L243.791 36.1933L244.041 36.3722C244.996 37.0561 245.731 38.5781 245.731 40.4353C245.731 41.7313 245.371 42.8808 244.816 43.6872C244.261 44.4959 243.547 44.9159 242.825 44.9006C242.138 44.886 241.453 44.4656 240.914 43.6805C240.377 42.899 240.02 41.7995 239.997 40.5633C239.973 39.2096 240.342 38.0066 240.919 37.1728L241.462 36.3882H240.508H227.901H226.947L227.49 37.1728C228.049 37.9799 228.413 39.1332 228.413 40.4353C228.413 41.757 228.038 42.9257 227.466 43.7339C226.892 44.5433 226.16 44.9474 225.419 44.8967C224.759 44.8515 224.105 44.4305 223.587 43.6722C223.072 42.9173 222.725 41.8677 222.682 40.6853C222.617 38.8424 223.279 37.2851 224.193 36.5101L224.403 36.3324L224.365 36.0601L220.141 5.60643L220.081 5.17513H219.645H215.443C215.26 5.17513 215.036 5.06581 214.837 4.77118C214.639 4.47929 214.5 4.04796 214.5 3.54695V2.12817C214.5 1.62716 214.639 1.19583 214.837 0.903948C215.036 0.609311 215.26 0.5 215.443 0.5H221.609C221.767 0.5 221.955 0.58096 222.136 0.79896C222.318 1.01746 222.469 1.35149 222.527 1.77035C222.527 1.77035 222.527 1.77036 222.527 1.77036L223.078 5.74382L223.138 6.17513H223.574H247.193C247.406 6.17513 247.669 6.3231 247.881 6.71367C248.087 7.09518 248.193 7.63386 248.106 8.1988L245.263 26.6429C245.2 27.0521 245.049 27.3759 244.869 27.587C244.691 27.7974 244.506 27.8756 244.35 27.8756H226.722ZM238.534 14.3972H236.148V11.3503C236.148 10.8718 236.017 10.4164 235.78 10.0664C235.544 9.71914 235.167 9.43147 234.686 9.43147H233.723C233.243 9.43147 232.865 9.71914 232.629 10.0664C232.392 10.4164 232.261 10.8718 232.261 11.3503V14.3972H229.875C229.394 14.3972 229.016 14.6849 228.781 15.0321C228.544 15.3821 228.413 15.8375 228.413 16.316V17.7348C228.413 18.2132 228.544 18.6687 228.781 19.0186C229.016 19.3659 229.394 19.6535 229.875 19.6535H232.261V22.7005C232.261 23.179 232.392 23.6344 232.629 23.9844C232.865 24.3316 233.243 24.6193 233.723 24.6193H234.686C235.167 24.6193 235.544 24.3316 235.78 23.9844C236.017 23.6344 236.148 23.179 236.148 22.7005V19.6535H238.534C239.015 19.6535 239.393 19.3659 239.628 19.0186C239.866 18.6687 239.996 18.2132 239.996 17.7348V16.316C239.996 15.8375 239.866 15.3821 239.628 15.0321C239.393 14.6849 239.015 14.3972 238.534 14.3972Z" stroke="black" stroke-opacity="0.32"/>
<path d="M29.6817 31.0204L23.8218 26.7368C23.5573 26.5435 23.1988 26.4361 22.8226 26.4361H21.8646C23.4868 24.9194 24.4507 23.0118 24.4507 20.9366C24.4507 16 18.9787 12 12.2254 12C5.47202 12 0 16 0 20.9366C0 25.8733 5.47202 29.8733 12.2254 29.8733C15.0642 29.8733 17.6739 29.1686 19.7486 27.9828V28.6831C19.7486 28.9581 19.8956 29.2202 20.1601 29.4135L26.02 33.6971C26.5725 34.101 27.4659 34.101 28.0125 33.6971L29.6759 32.4812C30.2284 32.0773 30.2284 31.4243 29.6817 31.0204ZM12.2254 26.4361C8.06991 26.4361 4.70206 23.9785 4.70206 20.9366C4.70206 17.899 8.06403 15.4372 12.2254 15.4372C16.3808 15.4372 19.7486 17.8947 19.7486 20.9366C19.7486 23.9742 16.3867 26.4361 12.2254 26.4361Z" fill="#120000"/>
<path d="M21.5231 26.0709L20.5976 26.9361H21.8646H22.8226C23.1098 26.9361 23.3608 27.0192 23.5267 27.1405L29.3846 31.4226C29.3849 31.4228 29.3852 31.423 29.3855 31.4232C29.5525 31.5469 29.5912 31.6705 29.591 31.7494C29.5908 31.8284 29.5514 31.9528 29.3808 32.0776L27.7174 33.2934L27.7154 33.295C27.5434 33.422 27.293 33.5 27.0185 33.5C26.7442 33.5 26.4911 33.4221 26.3151 33.2934L20.4551 29.0099C20.2926 28.8911 20.2486 28.768 20.2486 28.6831V27.9828V27.1211L19.5005 27.5487C17.5066 28.6884 14.9834 29.3733 12.2254 29.3733C8.94341 29.3733 5.99303 28.4006 3.87524 26.8525C1.75712 25.3042 0.5 23.2068 0.5 20.9366C0.5 18.6665 1.75712 16.5691 3.87524 15.0207C5.99303 13.4726 8.94341 12.5 12.2254 12.5C15.5073 12.5 18.4577 13.4726 20.5755 15.0207C22.6936 16.5691 23.9507 18.6665 23.9507 20.9366C23.9507 22.8474 23.0649 24.6294 21.5231 26.0709ZM4.20206 20.9366C4.20206 22.6557 5.15482 24.1673 6.61045 25.2308C8.0663 26.2944 10.0531 26.9361 12.2254 26.9361C14.4006 26.9361 16.3875 26.2933 17.8427 25.229C19.2975 24.165 20.2486 22.6533 20.2486 20.9366C20.2486 19.2176 19.2959 17.7059 17.8403 16.6425C16.3844 15.5788 14.3976 14.9372 12.2254 14.9372C10.0501 14.9372 8.0632 15.5799 6.60804 16.6442C5.15316 17.7083 4.20206 19.2199 4.20206 20.9366Z" stroke="black" stroke-opacity="0.32"/>
</svg>
