<svg width="264" height="93" viewBox="0 0 264 93" fill="none" xmlns="http://www.w3.org/2000/svg">
<path d="M19.1255 3.23511L13.8956 27.2814L2.1945 31.1498C0.096146 31.84 -0.744798 37.7062 0.77691 41.0662L9.24241 59.7728L7.24016 86.1983C6.87976 90.9749 9.09824 94.5527 10.9563 92.3188L21.4241 79.8417L31.8918 92.3188C33.7499 94.5346 35.9684 90.9749 35.608 86.1983L33.6057 59.7728L42.0712 41.0662C43.5929 37.7062 42.752 31.84 40.6536 31.1498L28.9525 27.2814L23.7227 3.23511C22.7856 -1.05108 20.0706 -1.10557 19.1255 3.23511Z" fill="#FFF85A"/>
<path d="M189.136 3.23511L183.906 27.2814L172.205 31.1498C170.107 31.84 169.266 37.7062 170.788 41.0662L179.253 59.7728L177.251 86.1983C176.89 90.9749 179.109 94.5527 180.967 92.3188L191.435 79.8417L201.903 92.3188C203.761 94.5346 205.979 90.9749 205.619 86.1983L203.616 59.7728L212.082 41.0662C213.604 37.7062 212.763 31.84 210.664 31.1498L198.963 27.2814L193.733 3.23511C192.796 -1.05108 190.081 -1.10557 189.136 3.23511Z" fill="#FFF85A"/>
<path d="M75.7961 3.23511L70.5663 27.2814L58.8652 31.1498C56.7668 31.84 55.9259 37.7062 57.4476 41.0662L65.9131 59.7728L63.9108 86.1983C63.5504 90.9749 65.7689 94.5527 67.627 92.3188L78.0947 79.8417L88.5625 92.3188C90.4206 94.5346 92.639 90.9749 92.2786 86.1983L90.2764 59.7728L98.7419 41.0662C100.264 37.7062 99.4227 31.84 97.3243 31.1498L85.6232 27.2814L80.3933 3.23511C79.4563 -1.05108 76.7412 -1.10557 75.7961 3.23511Z" fill="#FFF85A"/>
<path d="M132.466 3.23511L127.236 27.2814L115.535 31.1498C113.436 31.84 112.596 37.7062 114.117 41.0662L122.583 59.7728L120.58 86.1983C120.22 90.9748 122.439 94.5527 124.297 92.3188L134.764 79.8417L145.232 92.3188C147.09 94.5346 149.309 90.9748 148.948 86.1983L146.946 59.7728L155.412 41.0662C156.933 37.7062 156.092 31.84 153.994 31.1498L142.293 27.2814L137.063 3.23511C136.126 -1.05108 133.411 -1.10557 132.466 3.23511Z" fill="#FFF85A"/>
<path d="M261.806 31.1532L250.105 27.2824L244.876 3.23502C244.406 1.08621 243.489 0 242.572 0C241.661 0 240.75 1.07168 240.279 3.23502L235.048 27.2806L223.347 31.1477C221.248 31.838 220.407 37.7031 221.928 41.0635L230.393 59.7725L228.39 86.1976C228.105 89.972 229.432 93 230.917 93C231.311 93 231.716 92.7875 232.106 92.3188L242.574 79.8438L253.041 92.3225C253.429 92.7857 253.834 92.9964 254.226 92.9964C255.713 92.9964 257.042 89.9793 256.757 86.203L254.756 59.7761L263.223 41.0708C264.745 37.7104 263.904 31.8434 261.806 31.1532ZM252.074 53.5313L250.625 56.7318L250.967 61.251L252.528 81.8582L244.363 72.124L242.574 69.9916L242.577 12.377L246.656 31.1387L247.55 35.2492L249.549 35.9104L258.681 38.931L252.074 53.5313Z" fill="#FFF85A"/>
</svg>
