<svg width="245" height="46" viewBox="0 0 245 46" fill="none" xmlns="http://www.w3.org/2000/svg">
<path d="M240.429 28.6931H222.755L223.15 31.5624H239.333C240.261 31.5624 240.949 32.8447 240.744 34.1913L240.411 36.368C241.538 37.1815 242.315 38.8995 242.315 40.8876C242.315 43.6854 240.776 45.9487 238.889 45.9084C237.091 45.8699 235.612 43.6998 235.564 41.0263C235.537 39.5659 235.931 38.2423 236.577 37.3009H223.937C224.563 38.2124 224.952 39.4822 224.952 40.8876C224.952 43.7402 223.352 46.0372 221.415 45.9033C219.694 45.7845 218.295 43.7168 218.204 41.1585C218.134 39.1828 218.833 37.4414 219.895 36.533L215.66 5.73861H211.447C210.648 5.73861 210 4.77515 210 3.58663V2.15198C210 0.963459 210.648 0 211.447 0H217.628C218.316 0 218.908 0.71921 219.046 1.72069L219.599 5.73861H243.279C244.207 5.73861 244.896 7.02092 244.69 8.36753L241.84 27.018C241.69 27.9978 241.105 28.6931 240.429 28.6931ZM234.598 15.0639H231.704V11.4772C231.704 10.6848 231.272 10.0426 230.739 10.0426H229.775C229.242 10.0426 228.81 10.6848 228.81 11.4772V15.0639H225.916C225.384 15.0639 224.952 15.7061 224.952 16.4985V17.9332C224.952 18.7255 225.384 19.3678 225.916 19.3678H228.81V22.9544C228.81 23.7468 229.242 24.3891 229.775 24.3891H230.739C231.272 24.3891 231.704 23.7468 231.704 22.9544V19.3678H234.598C235.131 19.3678 235.563 18.7255 235.563 17.9332V16.4985C235.563 15.7061 235.131 15.0639 234.598 15.0639Z" fill="black"/>
<path d="M222.755 28.1931H222.182L222.26 28.7612L222.655 31.6305L222.714 32.0624H223.15H239.333C239.545 32.0624 239.81 32.2112 240.023 32.6083C240.231 32.9956 240.337 33.5424 240.249 34.1158L239.917 36.2925L239.871 36.5945L240.118 36.7734C241.077 37.4656 241.815 39.0069 241.815 40.8876C241.815 42.2001 241.453 43.3641 240.897 44.1807C240.338 45 239.623 45.4239 238.9 45.4085C238.212 45.3938 237.525 44.9693 236.984 44.174C236.445 43.3826 236.086 42.2691 236.064 41.0173C236.039 39.6465 236.41 38.4282 236.989 37.5838L237.527 36.8009H236.577H223.937H222.988L223.525 37.5838C224.086 38.4012 224.452 39.5692 224.452 40.8876C224.452 42.2261 224.075 43.4096 223.501 44.228C222.925 45.048 222.191 45.4558 221.449 45.4045L221.415 45.9033L221.449 45.4045C220.788 45.3589 220.132 44.9337 219.612 44.1655C219.095 43.4011 218.746 42.3382 218.704 41.1408C218.638 39.2745 219.303 37.6975 220.22 36.913L220.428 36.7354L220.391 36.4649L216.155 5.67049L216.096 5.23861H215.66H211.447C211.265 5.23861 211.04 5.12881 210.839 4.82933C210.639 4.53297 210.5 4.09509 210.5 3.58663V2.15198C210.5 1.64352 210.639 1.20565 210.839 0.909283C211.04 0.609807 211.265 0.5 211.447 0.5H217.628C217.786 0.5 217.975 0.581252 218.157 0.80271C218.34 1.02453 218.492 1.36367 218.551 1.78881C218.551 1.78882 218.551 1.78882 218.551 1.78882L219.103 5.80674L219.163 6.23861H219.599H243.279C243.491 6.23861 243.756 6.38745 243.969 6.78454C244.177 7.17188 244.283 7.71867 244.196 8.292L241.346 26.9425L241.834 27.0171L241.346 26.9425C241.282 27.3578 241.13 27.6865 240.949 27.9008C240.769 28.1145 240.584 28.1931 240.429 28.1931H222.755ZM234.598 14.5639H232.204V11.4772C232.204 10.9952 232.074 10.5365 231.836 10.1838C231.601 9.83419 231.223 9.54257 230.739 9.54257H229.775C229.291 9.54257 228.913 9.83419 228.678 10.1838C228.441 10.5365 228.31 10.9952 228.31 11.4772V14.5639H225.916C225.433 14.5639 225.054 14.8555 224.819 15.2051C224.582 15.5577 224.452 16.0165 224.452 16.4985V17.9332C224.452 18.4151 224.582 18.8739 224.819 19.2266C225.054 19.5762 225.433 19.8678 225.916 19.8678H228.31V22.9544C228.31 23.4364 228.441 23.8952 228.678 24.2479C228.913 24.5975 229.291 24.8891 229.775 24.8891H230.739C231.223 24.8891 231.601 24.5975 231.836 24.2479C232.074 23.8952 232.204 23.4364 232.204 22.9544V19.8678H234.598C235.082 19.8678 235.46 19.5762 235.695 19.2266C235.932 18.8739 236.063 18.4151 236.063 17.9332V16.4985C236.063 16.0165 235.932 15.5577 235.695 15.2051C235.46 14.8555 235.082 14.5639 234.598 14.5639Z" stroke="black" stroke-opacity="0.32"/>
<path d="M29.6253 39.8561L23.7765 31.5558C23.5125 31.1811 23.1547 30.973 22.7792 30.973H21.823C23.4421 28.0342 24.4042 24.3377 24.4042 20.3166C24.4042 10.7509 18.9426 3 12.2021 3C5.46161 3 0 10.7509 0 20.3166C0 29.8824 5.46161 37.6333 12.2021 37.6333C15.0356 37.6333 17.6402 36.2679 19.7111 33.9701V35.3271C19.7111 35.86 19.8577 36.3678 20.1217 36.7424L25.9705 45.0428C26.522 45.8253 27.4137 45.8253 27.9592 45.0428L29.6194 42.6867C30.1709 41.9041 30.1709 40.6387 29.6253 39.8561ZM12.2021 30.973C8.05456 30.973 4.69312 26.2109 4.69312 20.3166C4.69312 14.4306 8.04869 9.66024 12.2021 9.66024C16.3496 9.66024 19.7111 14.4223 19.7111 20.3166C19.7111 26.2026 16.3555 30.973 12.2021 30.973Z" fill="#120000"/>
<path d="M21.3851 30.7317L20.9767 31.473H21.823H22.7792C22.9564 31.473 23.1749 31.57 23.3678 31.8438L29.2151 40.1421C29.2154 40.1424 29.2157 40.1428 29.2159 40.1432C29.4188 40.4349 29.5344 40.8412 29.5337 41.2707C29.5331 41.7007 29.4162 42.1071 29.2107 42.3987L27.5505 44.7548L27.5491 44.7568C27.3501 45.0422 27.132 45.1297 26.9671 45.1297C26.8016 45.1297 26.5814 45.0416 26.3792 44.7548L20.5305 36.4544C20.3355 36.1777 20.2111 35.7749 20.2111 35.3271V33.9701V32.6685L19.3397 33.6354C17.3418 35.8522 14.8643 37.1333 12.2021 37.1333C9.03823 37.1333 6.12481 35.3149 3.98209 32.2741C1.84031 29.2346 0.5 25.0088 0.5 20.3166C0.5 15.6244 1.84031 11.3987 3.98209 8.35915C6.12481 5.31831 9.03823 3.5 12.2021 3.5C15.366 3.5 18.2794 5.31831 20.4221 8.35915C22.5639 11.3987 23.9042 15.6244 23.9042 20.3166C23.9042 24.2602 22.9603 27.8726 21.3851 30.7317ZM4.19312 20.3166C4.19312 23.3544 5.05853 26.1219 6.48363 28.1433C7.90785 30.1634 9.92224 31.473 12.2021 31.473C14.4851 31.473 16.4995 30.1611 17.9229 28.14C19.3472 26.1176 20.2111 23.3501 20.2111 20.3166C20.2111 17.2789 19.3457 14.5113 17.9206 12.49C16.4963 10.4699 14.482 9.16024 12.2021 9.16024C9.91911 9.16024 7.9047 10.4721 6.48129 12.4933C5.05701 14.5156 4.19312 17.2831 4.19312 20.3166Z" stroke="black" stroke-opacity="0.32"/>
</svg>
