<svg width="268" height="69" viewBox="0 0 268 69" fill="none" xmlns="http://www.w3.org/2000/svg">
<g filter="url(#filter0_ii_65_112)">
<path d="M0.982422 10.2877C0.982422 4.76487 5.45957 0.28772 10.9824 0.28772H257.762C263.285 0.28772 267.762 4.76487 267.762 10.2877V58.7567C267.762 64.2796 263.285 68.7567 257.762 68.7567H10.9824C5.45957 68.7567 0.982422 64.2796 0.982422 58.7567V10.2877Z" fill="#A7B5E8"/>
</g>
<path d="M1.48242 10.2877C1.48242 5.04102 5.73572 0.78772 10.9824 0.78772H257.762C263.009 0.78772 267.262 5.04101 267.262 10.2877V58.7567C267.262 64.0034 263.009 68.2567 257.762 68.2567H10.9824C5.73571 68.2567 1.48242 64.0034 1.48242 58.7567V10.2877Z" stroke="black" stroke-opacity="0.32"/>
<defs>
<filter id="filter0_ii_65_112" x="-3.01758" y="-3.71228" width="274.78" height="76.469" filterUnits="userSpaceOnUse" color-interpolation-filters="sRGB">
<feFlood flood-opacity="0" result="BackgroundImageFix"/>
<feBlend mode="normal" in="SourceGraphic" in2="BackgroundImageFix" result="shape"/>
<feColorMatrix in="SourceAlpha" type="matrix" values="0 0 0 0 0 0 0 0 0 0 0 0 0 0 0 0 0 0 127 0" result="hardAlpha"/>
<feOffset dx="-4" dy="-4"/>
<feGaussianBlur stdDeviation="2"/>
<feComposite in2="hardAlpha" operator="arithmetic" k2="-1" k3="1"/>
<feColorMatrix type="matrix" values="0 0 0 0 1 0 0 0 0 1 0 0 0 0 1 0 0 0 0.25 0"/>
<feBlend mode="normal" in2="shape" result="effect1_innerShadow_65_112"/>
<feColorMatrix in="SourceAlpha" type="matrix" values="0 0 0 0 0 0 0 0 0 0 0 0 0 0 0 0 0 0 127 0" result="hardAlpha"/>
<feOffset dx="4" dy="4"/>
<feGaussianBlur stdDeviation="2"/>
<feComposite in2="hardAlpha" operator="arithmetic" k2="-1" k3="1"/>
<feColorMatrix type="matrix" values="0 0 0 0 0 0 0 0 0 0 0 0 0 0 0 0 0 0 0.25 0"/>
<feBlend mode="normal" in2="effect1_innerShadow_65_112" result="effect2_innerShadow_65_112"/>
</filter>
</defs>
</svg>
