<svg width="269" height="69" viewBox="0 0 269 69" fill="none" xmlns="http://www.w3.org/2000/svg">
<g filter="url(#filter0_ii_65_169)">
<path d="M0.816895 10.8184C0.816895 5.29552 5.29405 0.818359 10.8169 0.818359H258.291C263.814 0.818359 268.291 5.29551 268.291 10.8184V58.8426C268.291 64.3655 263.814 68.8426 258.291 68.8426H10.8169C5.29403 68.8426 0.816895 64.3655 0.816895 58.8426V10.8184Z" fill="#A7B5E8"/>
</g>
<path d="M1.31689 10.8184C1.31689 5.57166 5.57019 1.31836 10.8169 1.31836H258.291C263.538 1.31836 267.791 5.57165 267.791 10.8184V58.8426C267.791 64.0893 263.538 68.3426 258.291 68.3426H10.8169C5.57018 68.3426 1.31689 64.0893 1.31689 58.8426V10.8184Z" stroke="black" stroke-opacity="0.32"/>
<defs>
<filter id="filter0_ii_65_169" x="-3.18311" y="-3.18164" width="275.474" height="76.0242" filterUnits="userSpaceOnUse" color-interpolation-filters="sRGB">
<feFlood flood-opacity="0" result="BackgroundImageFix"/>
<feBlend mode="normal" in="SourceGraphic" in2="BackgroundImageFix" result="shape"/>
<feColorMatrix in="SourceAlpha" type="matrix" values="0 0 0 0 0 0 0 0 0 0 0 0 0 0 0 0 0 0 127 0" result="hardAlpha"/>
<feOffset dx="-4" dy="-4"/>
<feGaussianBlur stdDeviation="2"/>
<feComposite in2="hardAlpha" operator="arithmetic" k2="-1" k3="1"/>
<feColorMatrix type="matrix" values="0 0 0 0 1 0 0 0 0 1 0 0 0 0 1 0 0 0 0.25 0"/>
<feBlend mode="normal" in2="shape" result="effect1_innerShadow_65_169"/>
<feColorMatrix in="SourceAlpha" type="matrix" values="0 0 0 0 0 0 0 0 0 0 0 0 0 0 0 0 0 0 127 0" result="hardAlpha"/>
<feOffset dx="4" dy="4"/>
<feGaussianBlur stdDeviation="2"/>
<feComposite in2="hardAlpha" operator="arithmetic" k2="-1" k3="1"/>
<feColorMatrix type="matrix" values="0 0 0 0 0 0 0 0 0 0 0 0 0 0 0 0 0 0 0.25 0"/>
<feBlend mode="normal" in2="effect1_innerShadow_65_169" result="effect2_innerShadow_65_169"/>
</filter>
</defs>
</svg>
