<svg width="269" height="69" viewBox="0 0 269 69" fill="none" xmlns="http://www.w3.org/2000/svg">
<g filter="url(#filter0_ii_65_188)">
<path d="M0.817383 10C0.817383 4.47715 5.29454 0 10.8174 0H258.292C263.815 0 268.292 4.47715 268.292 10V58.1964C268.292 63.7193 263.815 68.1964 258.292 68.1964H10.8174C5.29452 68.1964 0.817383 63.7193 0.817383 58.1964V10Z" fill="#A7B5E8"/>
</g>
<path d="M1.31738 10C1.31738 4.75329 5.57068 0.5 10.8174 0.5H258.292C263.538 0.5 267.792 4.75329 267.792 10V58.1964C267.792 63.4431 263.538 67.6964 258.292 67.6964H10.8174C5.57066 67.6964 1.31738 63.4431 1.31738 58.1964V10Z" stroke="black" stroke-opacity="0.32"/>
<defs>
<filter id="filter0_ii_65_188" x="-3.18262" y="-4" width="275.474" height="76.1965" filterUnits="userSpaceOnUse" color-interpolation-filters="sRGB">
<feFlood flood-opacity="0" result="BackgroundImageFix"/>
<feBlend mode="normal" in="SourceGraphic" in2="BackgroundImageFix" result="shape"/>
<feColorMatrix in="SourceAlpha" type="matrix" values="0 0 0 0 0 0 0 0 0 0 0 0 0 0 0 0 0 0 127 0" result="hardAlpha"/>
<feOffset dx="-4" dy="-4"/>
<feGaussianBlur stdDeviation="2"/>
<feComposite in2="hardAlpha" operator="arithmetic" k2="-1" k3="1"/>
<feColorMatrix type="matrix" values="0 0 0 0 1 0 0 0 0 1 0 0 0 0 1 0 0 0 0.25 0"/>
<feBlend mode="normal" in2="shape" result="effect1_innerShadow_65_188"/>
<feColorMatrix in="SourceAlpha" type="matrix" values="0 0 0 0 0 0 0 0 0 0 0 0 0 0 0 0 0 0 127 0" result="hardAlpha"/>
<feOffset dx="4" dy="4"/>
<feGaussianBlur stdDeviation="2"/>
<feComposite in2="hardAlpha" operator="arithmetic" k2="-1" k3="1"/>
<feColorMatrix type="matrix" values="0 0 0 0 0 0 0 0 0 0 0 0 0 0 0 0 0 0 0.25 0"/>
<feBlend mode="normal" in2="effect1_innerShadow_65_188" result="effect2_innerShadow_65_188"/>
</filter>
</defs>
</svg>
