<svg width="262" height="69" viewBox="0 0 262 69" fill="none" xmlns="http://www.w3.org/2000/svg">
<g filter="url(#filter0_ii_65_74)">
<path d="M0.306152 10C0.306152 4.47715 4.78331 0 10.3062 0H251.434C256.956 0 261.434 4.47715 261.434 10V58.1964C261.434 63.7193 256.956 68.1964 251.434 68.1964H10.3062C4.78331 68.1964 0.306152 63.7193 0.306152 58.1964V10Z" fill="#A7B5E8"/>
</g>
<path d="M0.806152 10C0.806152 4.75329 5.05945 0.5 10.3062 0.5H251.434C256.68 0.5 260.934 4.75329 260.934 10V58.1964C260.934 63.4431 256.68 67.6964 251.434 67.6964H10.3062C5.05945 67.6964 0.806152 63.4431 0.806152 58.1964V10Z" stroke="black" stroke-opacity="0.32"/>
<defs>
<filter id="filter0_ii_65_74" x="-3.69385" y="-4" width="269.127" height="76.1964" filterUnits="userSpaceOnUse" color-interpolation-filters="sRGB">
<feFlood flood-opacity="0" result="BackgroundImageFix"/>
<feBlend mode="normal" in="SourceGraphic" in2="BackgroundImageFix" result="shape"/>
<feColorMatrix in="SourceAlpha" type="matrix" values="0 0 0 0 0 0 0 0 0 0 0 0 0 0 0 0 0 0 127 0" result="hardAlpha"/>
<feOffset dx="-4" dy="-4"/>
<feGaussianBlur stdDeviation="2"/>
<feComposite in2="hardAlpha" operator="arithmetic" k2="-1" k3="1"/>
<feColorMatrix type="matrix" values="0 0 0 0 1 0 0 0 0 1 0 0 0 0 1 0 0 0 0.25 0"/>
<feBlend mode="normal" in2="shape" result="effect1_innerShadow_65_74"/>
<feColorMatrix in="SourceAlpha" type="matrix" values="0 0 0 0 0 0 0 0 0 0 0 0 0 0 0 0 0 0 127 0" result="hardAlpha"/>
<feOffset dx="4" dy="4"/>
<feGaussianBlur stdDeviation="2"/>
<feComposite in2="hardAlpha" operator="arithmetic" k2="-1" k3="1"/>
<feColorMatrix type="matrix" values="0 0 0 0 0 0 0 0 0 0 0 0 0 0 0 0 0 0 0.25 0"/>
<feBlend mode="normal" in2="effect1_innerShadow_65_74" result="effect2_innerShadow_65_74"/>
</filter>
</defs>
</svg>
