<svg width="268" height="68" viewBox="0 0 268 68" fill="none" xmlns="http://www.w3.org/2000/svg">
<g filter="url(#filter0_ii_65_207)">
<path d="M0.0771484 10.2837C0.0771484 4.76085 4.5543 0.283691 10.0771 0.283691H257.622C263.145 0.283691 267.622 4.76084 267.622 10.2837V57.8015C267.622 63.3244 263.145 67.8015 257.622 67.8015H10.0771C4.55428 67.8015 0.0771484 63.3244 0.0771484 57.8015V10.2837Z" fill="#A7B5E8"/>
</g>
<path d="M0.577148 10.2837C0.577148 5.03699 4.83044 0.783691 10.0771 0.783691H257.622C262.868 0.783691 267.122 5.03699 267.122 10.2837V57.8015C267.122 63.0482 262.868 67.3015 257.622 67.3015H10.0771C4.83043 67.3015 0.577148 63.0482 0.577148 57.8015V10.2837Z" stroke="black" stroke-opacity="0.32"/>
<defs>
<filter id="filter0_ii_65_207" x="-3.92285" y="-3.71631" width="275.544" height="75.5178" filterUnits="userSpaceOnUse" color-interpolation-filters="sRGB">
<feFlood flood-opacity="0" result="BackgroundImageFix"/>
<feBlend mode="normal" in="SourceGraphic" in2="BackgroundImageFix" result="shape"/>
<feColorMatrix in="SourceAlpha" type="matrix" values="0 0 0 0 0 0 0 0 0 0 0 0 0 0 0 0 0 0 127 0" result="hardAlpha"/>
<feOffset dx="-4" dy="-4"/>
<feGaussianBlur stdDeviation="2"/>
<feComposite in2="hardAlpha" operator="arithmetic" k2="-1" k3="1"/>
<feColorMatrix type="matrix" values="0 0 0 0 1 0 0 0 0 1 0 0 0 0 1 0 0 0 0.25 0"/>
<feBlend mode="normal" in2="shape" result="effect1_innerShadow_65_207"/>
<feColorMatrix in="SourceAlpha" type="matrix" values="0 0 0 0 0 0 0 0 0 0 0 0 0 0 0 0 0 0 127 0" result="hardAlpha"/>
<feOffset dx="4" dy="4"/>
<feGaussianBlur stdDeviation="2"/>
<feComposite in2="hardAlpha" operator="arithmetic" k2="-1" k3="1"/>
<feColorMatrix type="matrix" values="0 0 0 0 0 0 0 0 0 0 0 0 0 0 0 0 0 0 0.25 0"/>
<feBlend mode="normal" in2="effect1_innerShadow_65_207" result="effect2_innerShadow_65_207"/>
</filter>
</defs>
</svg>
