<svg width="266" height="69" viewBox="0 0 266 69" fill="none" xmlns="http://www.w3.org/2000/svg">
<g filter="url(#filter0_ii_65_131)">
<path d="M0.67041 10C0.67041 4.47715 5.14756 0 10.6704 0H255.85C261.373 0 265.85 4.47715 265.85 10V58.1964C265.85 63.7193 261.373 68.1964 255.85 68.1964H10.6704C5.14757 68.1964 0.67041 63.7193 0.67041 58.1964V10Z" fill="#A7B5E8"/>
</g>
<path d="M1.17041 10C1.17041 4.75329 5.42371 0.5 10.6704 0.5H255.85C261.097 0.5 265.35 4.7533 265.35 10V58.1964C265.35 63.4431 261.097 67.6964 255.85 67.6964H10.6704C5.42371 67.6964 1.17041 63.4431 1.17041 58.1964V10Z" stroke="black" stroke-opacity="0.32"/>
<defs>
<filter id="filter0_ii_65_131" x="-3.32959" y="-4" width="273.18" height="76.1964" filterUnits="userSpaceOnUse" color-interpolation-filters="sRGB">
<feFlood flood-opacity="0" result="BackgroundImageFix"/>
<feBlend mode="normal" in="SourceGraphic" in2="BackgroundImageFix" result="shape"/>
<feColorMatrix in="SourceAlpha" type="matrix" values="0 0 0 0 0 0 0 0 0 0 0 0 0 0 0 0 0 0 127 0" result="hardAlpha"/>
<feOffset dx="-4" dy="-4"/>
<feGaussianBlur stdDeviation="2"/>
<feComposite in2="hardAlpha" operator="arithmetic" k2="-1" k3="1"/>
<feColorMatrix type="matrix" values="0 0 0 0 1 0 0 0 0 1 0 0 0 0 1 0 0 0 0.25 0"/>
<feBlend mode="normal" in2="shape" result="effect1_innerShadow_65_131"/>
<feColorMatrix in="SourceAlpha" type="matrix" values="0 0 0 0 0 0 0 0 0 0 0 0 0 0 0 0 0 0 127 0" result="hardAlpha"/>
<feOffset dx="4" dy="4"/>
<feGaussianBlur stdDeviation="2"/>
<feComposite in2="hardAlpha" operator="arithmetic" k2="-1" k3="1"/>
<feColorMatrix type="matrix" values="0 0 0 0 0 0 0 0 0 0 0 0 0 0 0 0 0 0 0.25 0"/>
<feBlend mode="normal" in2="effect1_innerShadow_65_131" result="effect2_innerShadow_65_131"/>
</filter>
</defs>
</svg>
