<svg width="31" height="28" viewBox="0 0 31 28" fill="none" xmlns="http://www.w3.org/2000/svg">
<g filter="url(#filter0_d_32_61)">
<path d="M15.5 0C6.9375 0 0 6.26613 0 14C0 21.7339 6.9375 28 15.5 28C24.0625 28 31 21.7339 31 14C31 6.26613 24.0625 0 15.5 0ZM7.25 16.2581C6.8375 16.2581 6.5 15.9532 6.5 15.5806V12.4194C6.5 12.0468 6.8375 11.7419 7.25 11.7419H23.75C24.1625 11.7419 24.5 12.0468 24.5 12.4194V15.5806C24.5 15.9532 24.1625 16.2581 23.75 16.2581H7.25Z" fill="black"/>
</g>
<defs>
<filter id="filter0_d_32_61" x="0" y="0" width="31" height="28" filterUnits="userSpaceOnUse" color-interpolation-filters="sRGB">
<feFlood flood-opacity="0" result="BackgroundImageFix"/>
<feColorMatrix in="SourceAlpha" type="matrix" values="0 0 0 0 0 0 0 0 0 0 0 0 0 0 0 0 0 0 127 0" result="hardAlpha"/>
<feOffset/>
<feComposite in2="hardAlpha" operator="out"/>
<feColorMatrix type="matrix" values="0 0 0 0 1 0 0 0 0 1 0 0 0 0 1 0 0 0 0.01 0"/>
<feBlend mode="normal" in2="BackgroundImageFix" result="effect1_dropShadow_32_61"/>
<feBlend mode="normal" in="SourceGraphic" in2="effect1_dropShadow_32_61" result="shape"/>
</filter>
</defs>
</svg>
