<svg width="49" height="72" viewBox="0 0 49 72" fill="none" xmlns="http://www.w3.org/2000/svg">
<path d="M24.5384 0.35791C11.2821 0.35791 0.541504 16.3101 0.541504 35.9988C0.541504 55.6875 11.2821 71.6397 24.5384 71.6397C37.7948 71.6397 48.5354 55.6875 48.5354 35.9988C48.5354 16.3101 37.7948 0.35791 24.5384 0.35791ZM38.4722 40.0228C38.4722 40.9713 37.9496 41.7473 37.311 41.7473H28.4089V54.9689C28.4089 55.9174 27.8864 56.6935 27.2478 56.6935H21.8291C21.1905 56.6935 20.668 55.9174 20.668 54.9689V41.7473H11.7659C11.1273 41.7473 10.6047 40.9713 10.6047 40.0228V31.9748C10.6047 31.0263 11.1273 30.2503 11.7659 30.2503H20.668V17.0286C20.668 16.0801 21.1905 15.3041 21.8291 15.3041H27.2478C27.8864 15.3041 28.4089 16.0801 28.4089 17.0286V30.2503H37.311C37.9496 30.2503 38.4722 31.0263 38.4722 31.9748V40.0228Z" fill="black"/>
</svg>
