<svg width="49" height="72" viewBox="0 0 49 72" fill="none" xmlns="http://www.w3.org/2000/svg">
<path d="M24.0768 0C10.7763 0 0 15.9522 0 35.6409C0 55.3296 10.7763 71.2818 24.0768 71.2818C37.3774 71.2818 48.1537 55.3296 48.1537 35.6409C48.1537 15.9522 37.3774 0 24.0768 0ZM38.0569 39.6649C38.0569 40.6134 37.5327 41.3894 36.8919 41.3894H27.9602V54.611C27.9602 55.5595 27.4359 56.3356 26.7952 56.3356H21.3585C20.7177 56.3356 20.1935 55.5595 20.1935 54.611V41.3894H11.2617C10.621 41.3894 10.0967 40.6134 10.0967 39.6649V31.6169C10.0967 30.6684 10.621 29.8924 11.2617 29.8924H20.1935V16.6707C20.1935 15.7222 20.7177 14.9462 21.3585 14.9462H26.7952C27.4359 14.9462 27.9602 15.7222 27.9602 16.6707V29.8924H36.8919C37.5327 29.8924 38.0569 30.6684 38.0569 31.6169V39.6649Z" fill="black"/>
</svg>
