<svg width="32" height="19" viewBox="0 0 32 19" fill="none" xmlns="http://www.w3.org/2000/svg">
<path d="M15.6083 -3.05176e-05C6.98595 -3.05176e-05 0 4.11819 0 9.20103C0 14.2839 6.98595 18.4021 15.6083 18.4021C24.2306 18.4021 31.2165 14.2839 31.2165 9.20103C31.2165 4.11819 24.2306 -3.05176e-05 15.6083 -3.05176e-05ZM7.30063 10.6851C6.88525 10.6851 6.5454 10.4847 6.5454 10.2399V8.1622C6.5454 7.91733 6.88525 7.71699 7.30063 7.71699H23.9159C24.3313 7.71699 24.6711 7.91733 24.6711 8.1622V10.2399C24.6711 10.4847 24.3313 10.6851 23.9159 10.6851H7.30063Z" fill="black"/>
</svg>
