<svg width="33" height="19" viewBox="0 0 33 19" fill="none" xmlns="http://www.w3.org/2000/svg">
<path d="M16.4634 0.505859C7.84115 0.505859 0.855194 4.62408 0.855194 9.70692C0.855194 14.7898 7.84115 18.908 16.4634 18.908C25.0857 18.908 32.0717 14.7898 32.0717 9.70692C32.0717 4.62408 25.0857 0.505859 16.4634 0.505859ZM25.5263 10.7457C25.5263 10.9906 25.1864 11.191 24.7711 11.191H18.9809V14.6043C18.9809 14.8491 18.6411 15.0495 18.2257 15.0495H14.7012C14.2858 15.0495 13.946 14.8491 13.946 14.6043V11.191H8.15583C7.74045 11.191 7.40059 10.9906 7.40059 10.7457V8.66809C7.40059 8.42322 7.74045 8.22288 8.15583 8.22288H13.946V4.80958C13.946 4.56471 14.2858 4.36437 14.7012 4.36437H18.2257C18.6411 4.36437 18.9809 4.56471 18.9809 4.80958V8.22288H24.7711C25.1864 8.22288 25.5263 8.42322 25.5263 8.66809V10.7457Z" fill="black"/>
</svg>
