<svg width="46" height="52" viewBox="0 0 46 52" fill="none" xmlns="http://www.w3.org/2000/svg">
<path d="M39.9473 31.9149H17.2684L17.7748 35.1064H38.5406C39.7321 35.1064 40.6152 36.5327 40.3512 38.0305L39.9244 40.4517C41.3704 41.3566 42.3674 43.2675 42.3674 45.4788C42.3674 48.5907 40.3932 51.1082 37.9713 51.0633C35.6641 51.0205 33.7666 48.6067 33.7043 45.6331C33.6703 44.0087 34.1751 42.5364 35.0042 41.4893H18.7851C19.5879 42.5032 20.0866 43.9155 20.0866 45.4788C20.0866 48.6516 18.0343 51.2066 15.5477 51.0577C13.3397 50.9255 11.544 48.6257 11.428 45.7801C11.3384 43.5825 12.2354 41.6456 13.5981 40.6352L8.16354 6.38299H2.75712C1.73167 6.38299 0.900391 5.31134 0.900391 3.98937V2.39362C0.900391 1.07164 1.73167 0 2.75712 0H10.6892C11.5712 0 12.3314 0.799968 12.5082 1.9139L13.2173 6.38299H43.6045C44.796 6.38299 45.6791 7.80928 45.415 9.30709L41.7578 30.0518C41.5657 31.1416 40.8142 31.9149 39.9473 31.9149ZM32.4649 16.7553H28.7514V12.766C28.7514 11.8846 28.1972 11.1702 27.5136 11.1702H26.2757C25.5921 11.1702 25.0379 11.8846 25.0379 12.766V16.7553H21.3245C20.6408 16.7553 20.0866 17.4697 20.0866 18.3511V19.9468C20.0866 20.8282 20.6408 21.5426 21.3245 21.5426H25.0379V25.5319C25.0379 26.4133 25.5921 27.1277 26.2757 27.1277H27.5136C28.1972 27.1277 28.7514 26.4133 28.7514 25.5319V21.5426H32.4649C33.1485 21.5426 33.7027 20.8282 33.7027 19.9468V18.3511C33.7027 17.4697 33.1485 16.7553 32.4649 16.7553Z" fill="black"/>
</svg>
