<svg width="24" height="22" viewBox="0 0 24 22" fill="none" xmlns="http://www.w3.org/2000/svg">
<path d="M11.9108 5.33081C8.65849 5.33081 6.03519 7.83569 6.03519 10.9412C6.03519 14.0466 8.65849 16.5515 11.9108 16.5515C15.163 16.5515 17.7863 14.0466 17.7863 10.9412C17.7863 7.83569 15.163 5.33081 11.9108 5.33081ZM11.9108 14.5886C9.80906 14.5886 8.09087 12.9529 8.09087 10.9412C8.09087 8.92944 9.80394 7.2937 11.9108 7.2937C14.0176 7.2937 15.7306 8.92944 15.7306 10.9412C15.7306 12.9529 14.0125 14.5886 11.9108 14.5886ZM19.3971 5.10132C19.3971 5.82886 18.7835 6.40991 18.0267 6.40991C17.2647 6.40991 16.6562 5.82397 16.6562 5.10132C16.6562 4.37866 17.2699 3.79272 18.0267 3.79272C18.7835 3.79272 19.3971 4.37866 19.3971 5.10132ZM23.2886 6.42944C23.2017 4.67651 22.7824 3.12378 21.4375 1.84448C20.0977 0.565185 18.4716 0.164795 16.6358 0.0769043C14.7437 -0.0256348 9.07269 -0.0256348 7.18065 0.0769043C5.34996 0.159912 3.72383 0.560303 2.37894 1.8396C1.03406 3.1189 0.619851 4.67163 0.527805 6.42456C0.420419 8.2312 0.420419 13.6462 0.527805 15.4529C0.614737 17.2058 1.03406 18.7585 2.37894 20.0378C3.72383 21.3171 5.34485 21.7175 7.18065 21.8054C9.07269 21.908 14.7437 21.908 16.6358 21.8054C18.4716 21.7224 20.0977 21.322 21.4375 20.0378C22.7772 18.7585 23.1966 17.2058 23.2886 15.4529C23.396 13.6462 23.396 8.23608 23.2886 6.42944ZM20.8443 17.3914C20.4454 18.3484 19.6733 19.0857 18.6659 19.4714C17.1574 20.0427 13.5778 19.9109 11.9108 19.9109C10.2437 19.9109 6.65906 20.0378 5.15565 19.4714C4.15337 19.0906 3.38121 18.3533 2.97724 17.3914C2.37894 15.9509 2.51701 12.533 2.51701 10.9412C2.51701 9.34937 2.38406 5.92651 2.97724 4.49097C3.3761 3.53394 4.14826 2.79663 5.15565 2.41089C6.66417 1.8396 10.2437 1.97144 11.9108 1.97144C13.5778 1.97144 17.1625 1.84448 18.6659 2.41089C19.6681 2.79175 20.4403 3.52905 20.8443 4.49097C21.4426 5.9314 21.3045 9.34937 21.3045 10.9412C21.3045 12.533 21.4426 15.9558 20.8443 17.3914Z" fill="#342019"/>
</svg>
