<svg width="32" height="19" viewBox="0 0 32 19" fill="none" xmlns="http://www.w3.org/2000/svg">
<path d="M15.6083 0C6.98595 0 0 4.11822 0 9.20106C0 14.2839 6.98595 18.4021 15.6083 18.4021C24.2306 18.4021 31.2165 14.2839 31.2165 9.20106C31.2165 4.11822 24.2306 0 15.6083 0ZM24.6711 10.2399C24.6711 10.4848 24.3313 10.6851 23.9159 10.6851H18.1257V14.0984C18.1257 14.3433 17.7859 14.5436 17.3705 14.5436H13.846C13.4307 14.5436 13.0908 14.3433 13.0908 14.0984V10.6851H7.30063C6.88525 10.6851 6.5454 10.4848 6.5454 10.2399V8.16223C6.5454 7.91736 6.88525 7.71702 7.30063 7.71702H13.0908V4.30372C13.0908 4.05885 13.4307 3.85851 13.846 3.85851H17.3705C17.7859 3.85851 18.1257 4.05885 18.1257 4.30372V7.71702H23.9159C24.3313 7.71702 24.6711 7.91736 24.6711 8.16223V10.2399Z" fill="black"/>
</svg>
