<svg width="48" height="48" viewBox="0 0 48 48" fill="none" xmlns="http://www.w3.org/2000/svg">
<path d="M41.3706 29.7138H17.552L18.0838 32.6796H39.8933C41.1446 32.6796 42.0721 34.005 41.7948 35.3969L41.3465 37.6468C42.8652 38.4877 43.9124 40.2635 43.9124 42.3184C43.9124 45.2102 41.8389 47.5496 39.2953 47.5079C36.8721 47.4682 34.8793 45.2251 34.8139 42.4618C34.7781 40.9523 35.3083 39.5841 36.1791 38.6111H19.1448C19.988 39.5532 20.5118 40.8657 20.5118 42.3184C20.5118 45.2668 18.3564 47.6411 15.7448 47.5027C13.4258 47.3799 11.5399 45.2427 11.418 42.5984C11.3239 40.5562 12.266 38.7563 13.6972 37.8173L7.98951 5.98752H2.31138C1.23438 5.98752 0.361328 4.99167 0.361328 3.76318V2.28029C0.361328 1.05181 1.23438 0.0559549 2.31138 0.0559549H10.6421C11.5684 0.0559549 12.3669 0.799347 12.5525 1.8345L13.2973 5.98752H45.2116C46.463 5.98752 47.3905 7.31295 47.1131 8.70483L43.2721 27.9824C43.0704 28.9951 42.2811 29.7138 41.3706 29.7138ZM33.5121 15.6263H29.612V11.9191C29.612 11.1001 29.03 10.4362 28.312 10.4362H27.012C26.2939 10.4362 25.7119 11.1001 25.7119 11.9191V15.6263H21.8118C21.0938 15.6263 20.5118 16.2902 20.5118 17.1092V18.5921C20.5118 19.4111 21.0938 20.075 21.8118 20.075H25.7119V23.7822C25.7119 24.6012 26.2939 25.2651 27.012 25.2651H28.312C29.03 25.2651 29.612 24.6012 29.612 23.7822V20.075H33.5121C34.2302 20.075 34.8122 19.4111 34.8122 18.5921V17.1092C34.8122 16.2902 34.2302 15.6263 33.5121 15.6263Z" fill="black"/>
</svg>
