<svg width="62" height="88" viewBox="0 0 62 88" fill="none" xmlns="http://www.w3.org/2000/svg">
<path d="M35.1195 10.5507L35.1187 10.5519L32.7796 14.4766L30.6321 18.0798L28.4846 14.4766L26.1455 10.5519L26.1436 10.5488C23.4074 5.94277 20.0666 3.68455 17.0886 3.2868C14.2337 2.90548 11.0173 4.14652 8.16519 8.10376L35.1195 10.5507ZM35.1195 10.5507C37.8622 5.9428 41.2036 3.68449 44.1801 3.28678C47.0326 2.90565 50.2459 4.14561 53.0984 8.10286C56.4535 12.7655 58.3281 19.474 58.5134 26.4797C58.6986 33.478 57.1883 40.4412 54.1429 45.5584L54.1426 45.5589M35.1195 10.5507L54.1426 45.5589M54.1426 45.5589L31.1672 84.1866C30.9442 84.5614 30.7502 84.7338 30.6507 84.8015C30.6416 84.8077 30.6335 84.813 30.6262 84.8175C30.6189 84.813 30.6107 84.8077 30.6016 84.8015C30.5022 84.7338 30.3082 84.5614 30.0851 84.1866L7.11042 45.5601C7.1102 45.5597 7.10997 45.5593 7.10975 45.5589M54.1426 45.5589H7.10975M7.10975 45.5589C4.07008 40.4416 2.56274 33.4783 2.7493 26.4802M7.10975 45.5589L2.7493 26.4802M2.7493 26.4802C2.93605 19.4749 4.81031 12.767 8.16477 8.10434L2.7493 26.4802ZM30.5796 84.8413C30.5794 84.8413 30.5804 84.8409 30.5826 84.8403C30.5808 84.841 30.5797 84.8413 30.5796 84.8413ZM30.6697 84.8403C30.6718 84.8409 30.6728 84.8412 30.6728 84.8413C30.6727 84.8413 30.6717 84.841 30.6697 84.8403Z" fill="#FFFEFE" stroke="#FF0000" stroke-width="5"/>
</svg>
