<svg width="62" height="82" viewBox="0 0 62 82" fill="none" xmlns="http://www.w3.org/2000/svg">
<path d="M35.4715 9.43206L35.4707 9.43332L33.0865 13.1421L30.9835 16.4135L28.8806 13.1421L26.4964 9.43332L26.4944 9.43016C23.7364 5.12559 20.3314 2.95137 17.2094 2.56476C14.1788 2.18947 10.8676 3.42961 7.99069 7.13035C4.59816 11.502 2.70436 17.7864 2.51558 24.352C2.32694 30.9127 3.85097 37.4368 6.92319 42.2315L30.3402 78.7335C30.3403 78.7337 30.3404 78.7339 30.3405 78.734C30.5549 79.0679 30.7444 79.2272 30.8529 79.2957C30.9065 79.3295 30.942 79.3426 30.9582 79.3474C30.9667 79.35 30.9719 79.3509 30.9742 79.3513C30.9765 79.3516 30.9774 79.3516 30.9775 79.3516C30.9776 79.3516 30.9785 79.3516 30.9808 79.3513C30.9823 79.351 30.9849 79.3506 30.9889 79.3496C30.9911 79.3491 30.9937 79.3484 30.9968 79.3474C31.013 79.3426 31.0485 79.3295 31.1021 79.2957C31.2106 79.2272 31.4001 79.0679 31.6145 78.734C31.6146 78.7339 31.6147 78.7337 31.6148 78.7335L55.0326 42.2304L55.0329 42.2298C58.1104 37.4353 59.6372 30.9117 59.45 24.3515C59.2626 17.7861 57.3688 11.5017 53.9761 7.13L35.4715 9.43206ZM35.4715 9.43206C38.2362 5.12557 41.6419 2.95131 44.7623 2.56475M35.4715 9.43206L44.7623 2.56475M44.7623 2.56475C47.7905 2.18963 51.0985 3.42878 53.9758 7.12952L44.7623 2.56475Z" fill="#FFFEFE" stroke="#FF0000" stroke-width="5"/>
</svg>
