<svg width="63" height="87" viewBox="0 0 63 87" fill="none" xmlns="http://www.w3.org/2000/svg">
<path d="M35.9509 10.4238L35.9502 10.425L33.5737 14.2909L31.444 17.7554L29.3142 14.2909L26.9377 10.425L26.9358 10.4219C24.1668 5.90261 20.7687 3.65625 17.6995 3.25882C14.7396 2.87553 11.4523 4.13194 8.5644 8.01658C5.16401 12.5986 3.26537 19.1877 3.07616 26.0689C2.88712 32.9439 4.41446 39.7838 7.49486 44.8111L30.8362 82.8582C31.1298 83.3365 31.3538 83.4683 31.4379 83.5016C31.522 83.4683 31.746 83.3365 32.0396 82.8582L55.3817 44.8099L55.382 44.8094C58.4677 39.7824 59.9978 32.943 59.8102 26.0684C59.6225 19.1879 57.7241 12.5993 54.324 8.0173L35.9509 10.4238ZM35.9509 10.4238C38.7266 5.90262 42.1254 3.65619 45.193 3.2588M35.9509 10.4238L45.193 3.2588M45.193 3.2588C48.1508 2.87565 51.4354 4.13137 54.3239 8.01713L45.193 3.2588ZM31.4017 83.5119C31.4016 83.5115 31.406 83.5103 31.4152 83.5094C31.4064 83.5119 31.4018 83.5123 31.4017 83.5119ZM31.4606 83.5094C31.4699 83.5103 31.4742 83.5115 31.4741 83.5119C31.474 83.5123 31.4694 83.5119 31.4606 83.5094Z" fill="#FFFEFE" stroke="#FF0000" stroke-width="5"/>
</svg>
