<svg width="48" height="49" viewBox="0 0 48 49" fill="none" xmlns="http://www.w3.org/2000/svg">
<path d="M41.4037 30.737H17.85L18.3759 33.7619H39.9428C41.1802 33.7619 42.0974 35.1137 41.8232 36.5333L41.3799 38.828C42.8817 39.6857 43.9172 41.4968 43.9172 43.5927C43.9172 46.5421 41.8668 48.9282 39.3515 48.8857C36.9553 48.8451 34.9846 46.5574 34.9199 43.7389C34.8846 42.1994 35.4088 40.804 36.27 39.8115H19.4252C20.2589 40.7725 20.7769 42.1111 20.7769 43.5927C20.7769 46.5999 18.6455 49.0215 16.0629 48.8804C13.7698 48.7551 11.9048 46.5753 11.7843 43.8783C11.6912 41.7954 12.6228 39.9596 14.0381 39.002L8.39392 6.53802H2.77894C1.71393 6.53802 0.850586 5.52233 0.850586 4.26937V2.75693C0.850586 1.50398 1.71393 0.488281 2.77894 0.488281H11.017C11.933 0.488281 12.7226 1.24648 12.9062 2.30226L13.6427 6.53802H45.202C46.4394 6.53802 47.3566 7.88986 47.0824 9.30947L43.2841 28.9711C43.0846 30.004 42.3041 30.737 41.4037 30.737ZM33.6327 16.3689H29.7759V12.5878C29.7759 11.7524 29.2004 11.0753 28.4904 11.0753H27.2048C26.4948 11.0753 25.9192 11.7524 25.9192 12.5878V16.3689H22.0625C21.3525 16.3689 20.7769 17.046 20.7769 17.8813V19.3937C20.7769 20.2291 21.3525 20.9062 22.0625 20.9062H25.9192V24.6873C25.9192 25.5226 26.4948 26.1997 27.2048 26.1997H28.4904C29.2004 26.1997 29.7759 25.5226 29.7759 24.6873V20.9062H33.6327C34.3427 20.9062 34.9182 20.2291 34.9182 19.3937V17.8813C34.9182 17.046 34.3427 16.3689 33.6327 16.3689Z" fill="black"/>
</svg>
