<svg width="48" height="49" viewBox="0 0 48 49" fill="none" xmlns="http://www.w3.org/2000/svg">
<path d="M41.4732 30.3253H17.8276L18.3555 33.3578H40.0066C41.2489 33.3578 42.1697 34.713 41.8944 36.1362L41.4494 38.4368C42.957 39.2966 43.9966 41.1123 43.9966 43.2135C43.9966 46.1704 41.9382 48.5625 39.413 48.5198C37.0075 48.4792 35.0291 46.1856 34.9641 43.3601C34.9286 41.8166 35.455 40.4177 36.3195 39.4227H19.4089C20.2459 40.3861 20.7659 41.7281 20.7659 43.2135C20.7659 46.2283 18.6261 48.656 16.0335 48.5145C13.7314 48.389 11.8591 46.2037 11.7381 43.4998C11.6447 41.4117 12.5799 39.5712 14.0008 38.6112L8.33452 6.06505H2.69761C1.62843 6.06505 0.761719 5.04679 0.761719 3.79066V2.27439C0.761719 1.01827 1.62843 0 2.69761 0H10.9678C11.8874 0 12.6801 0.760122 12.8644 1.81857L13.6038 6.06505H45.2864C46.5287 6.06505 47.4494 7.42031 47.1741 8.84351L43.361 28.5549C43.1607 29.5904 42.3771 30.3253 41.4732 30.3253ZM33.6718 15.9208H29.8001V12.1301C29.8001 11.2927 29.2223 10.6138 28.5095 10.6138H27.2189C26.5061 10.6138 25.9283 11.2927 25.9283 12.1301V15.9208H22.0565C21.3437 15.9208 20.7659 16.5996 20.7659 17.437V18.9533C20.7659 19.7907 21.3437 20.4695 22.0565 20.4695H25.9283V24.2602C25.9283 25.0977 26.5061 25.7765 27.2189 25.7765H28.5095C29.2223 25.7765 29.8001 25.0977 29.8001 24.2602V20.4695H33.6718C34.3847 20.4695 34.9624 19.7907 34.9624 18.9533V17.437C34.9624 16.5996 34.3847 15.9208 33.6718 15.9208Z" fill="black"/>
</svg>
