<svg width="49" height="72" viewBox="0 0 49 72" fill="none" xmlns="http://www.w3.org/2000/svg">
<path d="M24.1203 0C10.7958 0 0 15.9522 0 35.6409C0 55.3296 10.7958 71.2818 24.1203 71.2818C37.4448 71.2818 48.2406 55.3296 48.2406 35.6409C48.2406 15.9522 37.4448 0 24.1203 0ZM38.1256 39.6649C38.1256 40.6134 37.6004 41.3894 36.9585 41.3894H28.0107V54.611C28.0107 55.5595 27.4855 56.3356 26.8436 56.3356H21.397C20.7551 56.3356 20.2299 55.5595 20.2299 54.611V41.3894H11.2821C10.6402 41.3894 10.115 40.6134 10.115 39.6649V31.6169C10.115 30.6684 10.6402 29.8924 11.2821 29.8924H20.2299V16.6707C20.2299 15.7222 20.7551 14.9462 21.397 14.9462H26.8436C27.4855 14.9462 28.0107 15.7222 28.0107 16.6707V29.8924H36.9585C37.6004 29.8924 38.1256 30.6684 38.1256 31.6169V39.6649Z" fill="black"/>
</svg>
