<svg width="50" height="71" viewBox="0 0 50 71" fill="none" xmlns="http://www.w3.org/2000/svg">
<path d="M25.0489 0C11.5809 0 0.668945 15.7129 0.668945 35.1063C0.668945 54.4996 11.5809 70.2125 25.0489 70.2125C38.5169 70.2125 49.4289 54.4996 49.4289 35.1063C49.4289 15.7129 38.5169 0 25.0489 0ZM39.205 39.0699C39.205 40.0042 38.6742 40.7686 38.0253 40.7686H28.9812V53.7919C28.9812 54.7261 28.4503 55.4906 27.8015 55.4906H22.2963C21.6475 55.4906 21.1167 54.7261 21.1167 53.7919V40.7686H12.0725C11.4237 40.7686 10.8928 40.0042 10.8928 39.0699V31.1427C10.8928 30.2084 11.4237 29.444 12.0725 29.444H21.1167V16.4207C21.1167 15.4864 21.6475 14.722 22.2963 14.722H27.8015C28.4503 14.722 28.9812 15.4864 28.9812 16.4207V29.444H38.0253C38.6742 29.444 39.205 30.2084 39.205 31.1427V39.0699Z" fill="black"/>
</svg>
