<svg width="26" height="17" viewBox="0 0 26 17" fill="none" xmlns="http://www.w3.org/2000/svg">
<path d="M24.6581 2.60777C24.3726 1.58129 23.5314 0.772873 22.4634 0.498524C20.5274 0 12.7647 0 12.7647 0C12.7647 0 5.00195 0 3.06599 0.498524C1.99795 0.772917 1.15677 1.58129 0.871266 2.60777C0.352539 4.46832 0.352539 8.35017 0.352539 8.35017C0.352539 8.35017 0.352539 12.232 0.871266 14.0926C1.15677 15.1191 1.99795 15.8938 3.06599 16.1681C5.00195 16.6667 12.7647 16.6667 12.7647 16.6667C12.7647 16.6667 20.5274 16.6667 22.4634 16.1681C23.5314 15.8938 24.3726 15.1191 24.6581 14.0926C25.1768 12.232 25.1768 8.35017 25.1768 8.35017C25.1768 8.35017 25.1768 4.46832 24.6581 2.60777ZM10.2258 11.8746V4.82574L16.7139 8.35026L10.2258 11.8746Z" fill="#342019"/>
</svg>
