<svg width="61" height="87" viewBox="0 0 61 87" fill="none" xmlns="http://www.w3.org/2000/svg">
<path d="M34.9927 9.83363L34.992 9.83487L32.6451 13.7596L30.4994 17.3477L28.3538 13.7596L26.0069 9.83487L26.005 9.83175C23.2605 5.227 19.9073 2.96531 16.9131 2.56672C14.0405 2.18434 10.8103 3.42992 7.9493 7.38584L34.9927 9.83363ZM34.9927 9.83363C37.7438 5.22703 41.0976 2.96526 44.0904 2.56671C46.961 2.18444 50.1888 3.42952 53.0506 7.38732C56.416 12.0496 58.296 18.7562 58.4819 25.7597C58.6676 32.7566 57.1526 39.7185 54.0975 44.835L54.0972 44.8356M34.9927 9.83363L54.0972 44.8356M54.0972 44.8356L31.0454 83.4633C31.0453 83.4634 31.0452 83.4635 31.0452 83.4636C30.8216 83.8379 30.6269 84.0107 30.526 84.0792C30.5136 84.0876 30.5027 84.0944 30.4935 84.0998C30.4842 84.0944 30.4734 84.0876 30.461 84.0792C30.3601 84.0107 30.1654 83.8379 29.9419 83.4638C29.9418 83.4636 29.9417 83.4635 29.9416 83.4633L6.89041 44.8367C6.89018 44.8363 6.88996 44.8359 6.88973 44.8356M54.0972 44.8356L6.88973 44.8356M6.88973 44.8356C3.84034 39.7189 2.32832 32.7569 2.51546 25.7602M6.88973 44.8356L2.51546 25.7602M2.51546 25.7602C2.70281 18.7558 4.58313 12.0486 7.949 7.38626L2.51546 25.7602ZM30.4512 84.1204C30.451 84.1204 30.4522 84.12 30.4547 84.1193C30.4525 84.1201 30.4513 84.1205 30.4512 84.1204ZM30.5323 84.1193C30.5348 84.12 30.536 84.1204 30.5358 84.1204C30.5356 84.1204 30.5344 84.1201 30.5323 84.1193Z" fill="#FFFEFE" stroke="#FF0000" stroke-width="5"/>
</svg>
