<svg width="30" height="27" viewBox="0 0 30 27" fill="none" xmlns="http://www.w3.org/2000/svg">
<g filter="url(#filter0_d_30_32)">
<path d="M15 0C6.71371 0 0 6.04234 0 13.5C0 20.9577 6.71371 27 15 27C23.2863 27 30 20.9577 30 13.5C30 6.04234 23.2863 0 15 0ZM7.01613 15.6774C6.61694 15.6774 6.29032 15.3835 6.29032 15.0242V11.9758C6.29032 11.6165 6.61694 11.3226 7.01613 11.3226H22.9839C23.3831 11.3226 23.7097 11.6165 23.7097 11.9758V15.0242C23.7097 15.3835 23.3831 15.6774 22.9839 15.6774H7.01613Z" fill="black"/>
</g>
<defs>
<filter id="filter0_d_30_32" x="0" y="0" width="30" height="27" filterUnits="userSpaceOnUse" color-interpolation-filters="sRGB">
<feFlood flood-opacity="0" result="BackgroundImageFix"/>
<feColorMatrix in="SourceAlpha" type="matrix" values="0 0 0 0 0 0 0 0 0 0 0 0 0 0 0 0 0 0 127 0" result="hardAlpha"/>
<feOffset/>
<feComposite in2="hardAlpha" operator="out"/>
<feColorMatrix type="matrix" values="0 0 0 0 1 0 0 0 0 1 0 0 0 0 1 0 0 0 0.01 0"/>
<feBlend mode="normal" in2="BackgroundImageFix" result="effect1_dropShadow_30_32"/>
<feBlend mode="normal" in="SourceGraphic" in2="effect1_dropShadow_30_32" result="shape"/>
</filter>
</defs>
</svg>
