<svg width="62" height="87" viewBox="0 0 62 87" fill="none" xmlns="http://www.w3.org/2000/svg">
<path d="M35.1209 9.81822L35.1201 9.81946L32.7638 13.7342L30.6219 17.2928L28.4799 13.7342L26.1236 9.81946L26.1217 9.81634C23.3684 5.22677 20.0005 2.96567 16.9844 2.56678C14.0869 2.18357 10.8388 3.43393 7.96802 7.37787C4.5902 12.0265 2.70351 18.7131 2.51551 25.6958C2.32772 32.6712 3.84499 39.6119 6.90514 44.7131C6.90535 44.7134 6.90555 44.7138 6.90576 44.7141L30.0495 83.2432C30.0495 83.2432 30.0495 83.2433 30.0495 83.2433C30.0496 83.2434 30.0497 83.2436 30.0498 83.2437C30.3168 83.6878 30.5235 83.8365 30.6159 83.883C30.7083 83.8365 30.915 83.6878 31.182 83.2437C31.1821 83.2436 31.1822 83.2434 31.1823 83.2433C31.1823 83.2433 31.1823 83.2432 31.1823 83.2432L54.3267 44.713L54.327 44.7124C57.3929 39.6114 58.9131 32.6708 58.7267 25.6952C58.5402 18.7133 56.6538 12.0272 53.2763 7.37866L35.1209 9.81822ZM35.1209 9.81822C37.8809 5.2268 41.2493 2.96561 44.264 2.56677M35.1209 9.81822L44.264 2.56677M44.264 2.56677C47.159 2.18374 50.4041 3.43307 53.2752 7.37717L44.264 2.56677ZM30.5631 83.9025C30.563 83.902 30.5681 83.9003 30.5787 83.8989C30.5685 83.9023 30.5632 83.903 30.5631 83.9025ZM30.6531 83.8989C30.6638 83.9003 30.6689 83.902 30.6687 83.9025C30.6686 83.903 30.6632 83.9023 30.6531 83.8989Z" fill="#FFFEFE" stroke="#FF0000" stroke-width="5"/>
</svg>
