<svg width="24" height="22" viewBox="0 0 24 22" fill="none" xmlns="http://www.w3.org/2000/svg">
<path d="M11.9108 5.33081C8.65855 5.33081 6.03525 7.83569 6.03525 10.9412C6.03525 14.0466 8.65855 16.5515 11.9108 16.5515C15.1631 16.5515 17.7864 14.0466 17.7864 10.9412C17.7864 7.83569 15.1631 5.33081 11.9108 5.33081ZM11.9108 14.5886C9.80912 14.5886 8.09093 12.9529 8.09093 10.9412C8.09093 8.92944 9.804 7.2937 11.9108 7.2937C14.0176 7.2937 15.7307 8.92944 15.7307 10.9412C15.7307 12.9529 14.0125 14.5886 11.9108 14.5886ZM19.3972 5.10132C19.3972 5.82886 18.7836 6.40991 18.0267 6.40991C17.2648 6.40991 16.6563 5.82397 16.6563 5.10132C16.6563 4.37866 17.2699 3.79272 18.0267 3.79272C18.7836 3.79272 19.3972 4.37866 19.3972 5.10132ZM23.2887 6.42944C23.2017 4.67651 22.7824 3.12378 21.4375 1.84448C20.0978 0.565185 18.4716 0.164795 16.6358 0.0769043C14.7438 -0.0256348 9.07275 -0.0256348 7.18071 0.0769043C5.35003 0.159912 3.72389 0.560303 2.379 1.8396C1.03412 3.1189 0.619912 4.67163 0.527866 6.42456C0.42048 8.2312 0.42048 13.6462 0.527866 15.4529C0.614798 17.2058 1.03412 18.7585 2.379 20.0378C3.72389 21.3171 5.34491 21.7175 7.18071 21.8054C9.07275 21.908 14.7438 21.908 16.6358 21.8054C18.4716 21.7224 20.0978 21.322 21.4375 20.0378C22.7773 18.7585 23.1966 17.2058 23.2887 15.4529C23.396 13.6462 23.396 8.23608 23.2887 6.42944ZM20.8443 17.3914C20.4455 18.3484 19.6733 19.0857 18.6659 19.4714C17.1574 20.0427 13.5779 19.9109 11.9108 19.9109C10.2438 19.9109 6.65912 20.0378 5.15571 19.4714C4.15343 19.0906 3.38128 18.3533 2.9773 17.3914C2.379 15.9509 2.51707 12.533 2.51707 10.9412C2.51707 9.34937 2.38412 5.92651 2.9773 4.49097C3.37616 3.53394 4.14832 2.79663 5.15571 2.41089C6.66423 1.8396 10.2438 1.97144 11.9108 1.97144C13.5779 1.97144 17.1625 1.84448 18.6659 2.41089C19.6682 2.79175 20.4404 3.52905 20.8443 4.49097C21.4426 5.9314 21.3046 9.34937 21.3046 10.9412C21.3046 12.533 21.4426 15.9558 20.8443 17.3914Z" fill="#342019"/>
</svg>
