<svg width="46" height="38" viewBox="0 0 46 38" fill="none" xmlns="http://www.w3.org/2000/svg">
<path d="M39.5715 23.8451H16.6243L17.1366 26.1456H38.1482C39.3538 26.1456 40.2474 27.1737 39.9802 28.2533L39.5483 29.9985C41.0114 30.6508 42.0203 32.0282 42.0203 33.6221C42.0203 35.8652 40.0227 37.6799 37.5722 37.6475C35.2376 37.6167 33.3177 35.8768 33.2547 33.7333C33.2202 32.5625 33.731 31.5012 34.57 30.7464H18.1588C18.9711 31.4773 19.4758 32.4953 19.4758 33.6221C19.4758 35.9091 17.3992 37.7508 14.8832 37.6435C12.6491 37.5482 10.8321 35.8905 10.7147 33.8393C10.624 32.2553 11.5316 30.8591 12.9105 30.1308L7.41161 5.44128H1.94121C0.903613 5.44128 0.0625 4.66883 0.0625 3.71593V2.56569C0.0625 1.61279 0.903613 0.840332 1.94121 0.840332H9.96713C10.8596 0.840332 11.6288 1.41696 11.8077 2.2199L12.5252 5.44128H43.272C44.4776 5.44128 45.3711 6.46938 45.104 7.54902L41.4035 22.5021C41.2091 23.2877 40.4487 23.8451 39.5715 23.8451ZM32.0005 12.9178H28.2431V10.0422C28.2431 9.40695 27.6824 8.892 26.9906 8.892H25.7382C25.0464 8.892 24.4857 9.40695 24.4857 10.0422V12.9178H20.7283C20.0365 12.9178 19.4758 13.4328 19.4758 14.0681V15.2183C19.4758 15.8536 20.0365 16.3685 20.7283 16.3685H24.4857V19.2441C24.4857 19.8794 25.0464 20.3944 25.7382 20.3944H26.9906C27.6824 20.3944 28.2431 19.8794 28.2431 19.2441V16.3685H32.0005C32.6923 16.3685 33.253 15.8536 33.253 15.2183V14.0681C33.253 13.4328 32.6923 12.9178 32.0005 12.9178Z" fill="black"/>
</svg>
