<svg width="49" height="72" viewBox="0 0 49 72" fill="none" xmlns="http://www.w3.org/2000/svg">
<path d="M24.1735 0C10.8196 0 0 15.9119 0 35.5509C0 55.1899 10.8196 71.1018 24.1735 71.1018C37.5274 71.1018 48.347 55.1899 48.347 35.5509C48.347 15.9119 37.5274 0 24.1735 0ZM38.2097 39.5647C38.2097 40.5108 37.6834 41.2849 37.04 41.2849H28.0724V54.4732C28.0724 55.4193 27.5461 56.1934 26.9028 56.1934H21.4442C20.8009 56.1934 20.2745 55.4193 20.2745 54.4732V41.2849H11.307C10.6636 41.2849 10.1373 40.5108 10.1373 39.5647V31.5371C10.1373 30.591 10.6636 29.8169 11.307 29.8169H20.2745V16.6287C20.2745 15.6825 20.8009 14.9085 21.4442 14.9085H26.9028C27.5461 14.9085 28.0724 15.6825 28.0724 16.6287V29.8169H37.04C37.6834 29.8169 38.2097 30.591 38.2097 31.5371V39.5647Z" fill="black"/>
</svg>
