<svg width="26" height="17" viewBox="0 0 26 17" fill="none" xmlns="http://www.w3.org/2000/svg">
<path d="M24.6583 2.60777C24.3728 1.58129 23.5316 0.772873 22.4636 0.498524C20.5277 0 12.7649 0 12.7649 0C12.7649 0 5.00219 0 3.06624 0.498524C1.99819 0.772917 1.15701 1.58129 0.871511 2.60777C0.352783 4.46832 0.352783 8.35017 0.352783 8.35017C0.352783 8.35017 0.352783 12.232 0.871511 14.0926C1.15701 15.1191 1.99819 15.8938 3.06624 16.1681C5.00219 16.6667 12.7649 16.6667 12.7649 16.6667C12.7649 16.6667 20.5276 16.6667 22.4636 16.1681C23.5316 15.8938 24.3728 15.1191 24.6583 14.0926C25.1771 12.232 25.1771 8.35017 25.1771 8.35017C25.1771 8.35017 25.1771 4.46832 24.6583 2.60777ZM10.2261 11.8746V4.82574L16.7142 8.35026L10.2261 11.8746Z" fill="#342019"/>
</svg>
