<svg width="49" height="50" viewBox="0 0 49 50" fill="none" xmlns="http://www.w3.org/2000/svg">
<path d="M42.6942 30.7648H18.1194L18.6681 33.8412H41.17C42.461 33.8412 43.418 35.2161 43.1319 36.66L42.6694 38.9939C44.2363 39.8661 45.3167 41.7082 45.3167 43.8398C45.3167 46.8395 43.1774 49.2663 40.553 49.223C38.0529 49.1818 35.9968 46.855 35.9293 43.9885C35.8924 42.4227 36.4394 41.0035 37.3379 39.9941H19.7629C20.6328 40.9715 21.1732 42.3329 21.1732 43.8398C21.1732 46.8983 18.9494 49.3612 16.2549 49.2177C13.8623 49.0903 11.9165 46.8733 11.7907 44.1302C11.6937 42.0119 12.6656 40.1447 14.1423 39.1708L8.2534 6.15297H2.39501C1.28382 6.15297 0.383057 5.11994 0.383057 3.84561V2.30737C0.383057 1.03304 1.28382 1.52588e-05 2.39501 1.52588e-05H10.9902C11.9459 1.52588e-05 12.7697 0.771153 12.9613 1.84494L13.7297 6.15297H46.6571C47.9482 6.15297 48.9052 7.52786 48.619 8.97169L44.6561 28.9688C44.4479 30.0193 43.6336 30.7648 42.6942 30.7648ZM34.5863 16.1515H30.5624V12.3059C30.5624 11.4563 29.9619 10.7677 29.2211 10.7677H27.8797C27.1389 10.7677 26.5384 11.4563 26.5384 12.3059V16.1515H22.5145C21.7737 16.1515 21.1732 16.8402 21.1732 17.6897V19.228C21.1732 20.0776 21.7737 20.7662 22.5145 20.7662H26.5384V24.6118C26.5384 25.4614 27.1389 26.1501 27.8797 26.1501H29.2211C29.9619 26.1501 30.5624 25.4614 30.5624 24.6118V20.7662H34.5863C35.3271 20.7662 35.9276 20.0776 35.9276 19.228V17.6897C35.9276 16.8402 35.3271 16.1515 34.5863 16.1515Z" fill="black"/>
</svg>
