<svg width="50" height="69" viewBox="0 0 50 69" fill="none" xmlns="http://www.w3.org/2000/svg">
<path d="M24.9092 0.970215C11.3976 0.970215 0.450195 16.045 0.450195 34.6508C0.450195 53.2567 11.3976 68.3315 24.9092 68.3315C38.4208 68.3315 49.3682 53.2567 49.3682 34.6508C49.3682 16.045 38.4208 0.970215 24.9092 0.970215ZM39.1112 38.4535C39.1112 39.3498 38.5786 40.0832 37.9277 40.0832H28.8542V52.5776C28.8542 53.474 28.3216 54.2073 27.6707 54.2073H22.1477C21.4968 54.2073 20.9642 53.474 20.9642 52.5776V40.0832H11.8907C11.2398 40.0832 10.7072 39.3498 10.7072 38.4535V30.8482C10.7072 29.9519 11.2398 29.2185 11.8907 29.2185H20.9642V16.7241C20.9642 15.8277 21.4968 15.0944 22.1477 15.0944H27.6707C28.3216 15.0944 28.8542 15.8277 28.8542 16.7241V29.2185H37.9277C38.5786 29.2185 39.1112 29.9519 39.1112 30.8482V38.4535Z" fill="black"/>
</svg>
