<svg width="62" height="87" viewBox="0 0 62 87" fill="none" xmlns="http://www.w3.org/2000/svg">
<path d="M35.051 9.83533L35.0503 9.83657L32.6991 13.7613L30.5545 17.3412L28.4099 13.7613L26.0587 9.83657L26.0568 9.83345C23.3078 5.22941 19.9478 2.96585 16.9448 2.5668C14.0624 2.1838 10.8243 3.43213 7.95822 7.38829C4.58655 12.0504 2.70314 18.7569 2.51549 25.7603C2.32801 32.7568 3.84281 39.7186 6.89795 44.835L29.9908 83.4616C29.9909 83.4618 29.991 83.4619 29.9911 83.4621C30.2519 83.8981 30.4547 84.0499 30.5485 84.0996C30.6423 84.0499 30.8451 83.8981 31.106 83.4621C31.1061 83.4619 31.1062 83.4618 31.1063 83.4616L54.1998 44.8339L54.2001 44.8333C57.2605 39.7172 58.778 32.7559 58.592 25.7598C58.4058 18.7572 56.5226 12.0511 53.1513 7.38906L35.051 9.83533ZM35.051 9.83533C37.8066 5.22943 41.1672 2.96579 44.1688 2.56679M35.051 9.83533L44.1688 2.56679M44.1688 2.56679C47.0489 2.18393 50.2844 3.43149 53.151 7.38867L44.1688 2.56679ZM30.4915 84.1218C30.4913 84.1213 30.4965 84.1195 30.5076 84.1179C30.4972 84.1215 30.4917 84.1223 30.4915 84.1218ZM30.5895 84.1179C30.6005 84.1195 30.6057 84.1213 30.6056 84.1218C30.6054 84.1223 30.5999 84.1215 30.5895 84.1179Z" fill="#FFFEFE" stroke="#FF0000" stroke-width="5"/>
</svg>
